<?xml version="1.0" standalone="no"?>
<!DOCTYPE svg PUBLIC "-//W3C//DTD SVG 1.1//EN" "http://www.w3.org/Graphics/SVG/1.1/DTD/svg11.dtd" >
<svg>
<metadata>
Created by FontForge 20090622 at Mon Aug  7 18:03:46 2017
 By deploy user
Part of the digitally encoded machine readable outline data for producing the Typefaces provided is copyrighted &#194;&#169; 2007 Linotype GmbH, www.linotype.com. All rights reserved. This software is the property of Linotype GmbH, and may not be reproduced, used, displayed, modified, disclosed or transferred without the express written approval of Linotype GmbH.  The digitally encoded machine readable software for producing the Typefaces licensed to you is copyrighted (c) 1989, 1995 Adobe Systems. All Rights Reserved. This software is the property of Adobe Systems Incorporated and its licensors, and may not be reproduced, used, displayed, modified, disclosed or transferred without the express written approval of Adobe. Avenir is a trademark of Linotype GmbH and may be registered in certain jurisdictions. This typeface is original artwork of Adrian Frutiger. The design may be protected in certain jurisdictions.
</metadata>
<defs>
<font id="AvenirLTPro-Black" horiz-adv-x="260" >
  <font-face 
    font-family="Avenir LT Pro 65 Medium"
    font-weight="750"
    font-stretch="normal"
    units-per-em="1000"
    panose-1="2 11 8 3 2 2 3 2 2 4"
    ascent="756"
    descent="-244"
    x-height="486"
    cap-height="708"
    bbox="-161 -260 1135 953"
    underline-thickness="50"
    underline-position="-100"
    unicode-range="U+000D-U+FB02"
  />
<missing-glyph horiz-adv-x="512" 
d="M278 117h-56v67h56v-67zM271 234h-46l-2 17q0 56 13 81q15 28 46 59q30 28 40 45.5t10 37.5q0 36 -22.5 60.5t-53.5 24.5q-71 0 -82 -95l-50 8q6 69 42 103t93 34q55 0 89.5 -36t34.5 -95q0 -34 -13 -60t-50 -60q-37 -33 -43 -52q-6 -20 -6 -72zM50 50h412v617h-412v-617
zM0 718h512v-718h-512v718z" />
    <glyph glyph-name="IJ" unicode="IJ" horiz-adv-x="791" 
d="M70 0v708h156v-708h-156zM729 708v-471q0 -55 -9 -96t-31.5 -79.5t-69.5 -59t-116 -20.5q-87 0 -143.5 41t-73.5 124l143 35q3 -25 23.5 -43.5t46.5 -18.5q21 0 35.5 9.5t22 21.5t11.5 33.5t4.5 34.5t0.5 35v454h156z" />
    <glyph glyph-name="ij" unicode="ij" horiz-adv-x="512" 
d="M55 0v486h150v-486h-150zM43 639q0 36 25.5 61.5t61.5 25.5t61.5 -25.5t25.5 -61.5t-25.5 -61.5t-61.5 -25.5t-61.5 25.5t-25.5 61.5zM457 486v-522q0 -99 -41 -151.5t-139 -52.5q-45 0 -70 8l8 133q18 -9 39 -9q18 0 30 9t16.5 27t5.5 30.5t1 31.5v496h150zM295 639
q0 36 25.5 61.5t61.5 25.5t61.5 -25.5t25.5 -61.5t-25.5 -61.5t-61.5 -25.5t-61.5 25.5t-25.5 61.5z" />
    <glyph glyph-name="napostrophe" unicode="&#x22;n" horiz-adv-x="574" 
d="M53 0v486h144v-66h2q17 32 54 55t88 23q105 0 142.5 -59.5t37.5 -170.5v-268h-150v238q0 22 -0.5 35.5t-4.5 33.5t-12 31t-23.5 19.5t-37.5 8.5q-53 0 -71.5 -33.5t-18.5 -90.5v-242h-150zM-78 509l44 199h134l-80 -199h-98z" />
    <glyph glyph-name="fi" unicode="fi" horiz-adv-x="630" 
d="M425 0v486h150v-486h-150zM413 639q0 36 25.5 61.5t61.5 25.5t61.5 -25.5t25.5 -61.5t-25.5 -61.5t-61.5 -25.5t-61.5 25.5t-25.5 61.5zM105 0v366h-99v120h99v86q0 44 7 76t26.5 61t58.5 44t98 15q52 0 88 -9l-7 -127q-28 10 -49 10q-38 0 -55 -16.5t-17 -62.5v-77h111
v-120h-111v-366h-150z" />
    <glyph glyph-name="fl" unicode="fl" horiz-adv-x="630" 
d="M425 0v756h150v-756h-150zM105 0v366h-99v120h99v86q0 44 7 76t26.5 61t58.5 44t98 15q52 0 88 -9l-7 -127q-28 10 -49 10q-38 0 -55 -16.5t-17 -62.5v-77h111v-120h-111v-366h-150z" />
    <glyph glyph-name=".notdef" horiz-adv-x="512" 
d="M278 117h-56v67h56v-67zM271 234h-46l-2 17q0 56 13 81q15 28 46 59q30 28 40 45.5t10 37.5q0 36 -22.5 60.5t-53.5 24.5q-71 0 -82 -95l-50 8q6 69 42 103t93 34q55 0 89.5 -36t34.5 -95q0 -34 -13 -60t-50 -60q-37 -33 -43 -52q-6 -20 -6 -72zM50 50h412v617h-412v-617
zM0 718h512v-718h-512v718z" />
    <glyph glyph-name=".null" horiz-adv-x="200" 
 />
    <glyph glyph-name="nonmarkingreturn" horiz-adv-x="333" 
 />
    <glyph glyph-name="CR" unicode="&#xd;" horiz-adv-x="0" 
 />
    <glyph glyph-name="space" unicode=" " horiz-adv-x="296" 
 />
    <glyph glyph-name="exclam" unicode="!" horiz-adv-x="444" 
d="M297 708v-474h-150v474h150zM130 86q0 38 27 65t65 27t65 -27t27 -65t-27 -65t-65 -27t-65 27t-27 65z" />
    <glyph glyph-name="quotedbl" unicode="&#x22;" horiz-adv-x="520" 
d="M313 426v282h126v-282h-126zM81 426v282h126v-282h-126z" />
    <glyph glyph-name="numbersign" unicode="#" horiz-adv-x="592" 
d="M101 0l28 201h-84v90h96l17 126h-84v90h96l28 201h97l-28 -201h99l28 201h97l-28 -201h84v-90h-96l-17 -126h84v-90h-96l-28 -201h-97l28 201h-99l-28 -201h-97zM337 291l17 126h-99l-17 -126h99z" />
    <glyph glyph-name="dollar" unicode="$" horiz-adv-x="592" 
d="M328 790v-70q135 0 214 -63l-96 -117q-44 39 -118 42v-159l96 -28q68 -20 106.5 -66.5t38.5 -114.5q0 -100 -68 -158t-173 -68v-70h-66v70q-158 0 -247 81l106 119q45 -55 141 -62v169l-73 22q-78 25 -116.5 69t-38.5 118q0 90 66.5 147.5t161.5 68.5v70h66zM262 439v140
q-72 -16 -72 -68q0 -17 5 -29.5t16 -20t18 -11.5t20 -8zM328 278v-150q85 17 85 74q0 29 -16.5 43t-49.5 26z" />
    <glyph glyph-name="percent" unicode="%" horiz-adv-x="907" 
d="M508 187q0 82 57.5 140t139.5 58t139.5 -58t57.5 -140q0 -83 -57.5 -141t-139.5 -58t-139.5 58t-57.5 141zM800 187q0 40 -27.5 68t-67.5 28t-67.5 -28t-27.5 -68q0 -41 27.5 -69t67.5 -28t67.5 28t27.5 69zM5 522q0 82 57.5 140t139.5 58t139.5 -58t57.5 -140
t-57.5 -140t-139.5 -58t-139.5 58t-57.5 140zM297 522q0 40 -27.5 68t-67.5 28t-67.5 -28t-27.5 -68t27.5 -68t67.5 -28t67.5 28t27.5 68zM210 11l405 729l84 -47l-413 -725z" />
    <glyph glyph-name="ampersand" unicode="&#x26;" horiz-adv-x="759" 
d="M744 365l-149 -198l158 -167h-193l-59 67q-82 -85 -208 -85q-104 0 -177.5 55.5t-73.5 156.5q0 66 42.5 118.5t107.5 74.5q-41 45 -59.5 78t-18.5 81q0 90 64 135t157 45q88 0 147 -44.5t59 -129.5q0 -59 -36.5 -106.5t-94.5 -77.5l91 -97l69 94h174zM333 606
q-30 0 -49.5 -18t-19.5 -48q0 -35 59 -89q80 46 80 91q0 30 -20 47t-50 17zM410 166l-125 136q-28 -17 -40.5 -26t-26.5 -29.5t-14 -45.5q0 -38 28.5 -62.5t66.5 -24.5q52 0 111 52z" />
    <glyph glyph-name="quotesingle" unicode="'" horiz-adv-x="296" 
d="M85 426v282h126v-282h-126z" />
    <glyph glyph-name="parenleft" unicode="(" horiz-adv-x="314" 
d="M190 732l103 -60q-67 -105 -98 -190t-31 -194t31 -194t98 -190l-103 -60l-2 4q-144 213 -144 440t144 440z" />
    <glyph glyph-name="parenright" unicode=")" horiz-adv-x="314" 
d="M124 -156l-103 60q67 105 98 190t31 194t-31 194t-98 190l103 60l2 -4q144 -213 144 -440t-144 -440z" />
    <glyph glyph-name="asterisk" unicode="*" horiz-adv-x="482" 
d="M293 708v-138l131 43l30 -95l-131 -42l83 -114l-83 -61l-84 115l-81 -110l-81 61l84 109l-133 46l32 95l131 -47v138h102z" />
    <glyph glyph-name="plus" unicode="+" horiz-adv-x="666" 
d="M59 240v126h211v211h126v-211h211v-126h-211v-211h-126v211h-211z" />
    <glyph glyph-name="comma" unicode="," horiz-adv-x="296" 
d="M17 -120l74 282h144l-90 -282h-128z" />
    <glyph glyph-name="hyphen" unicode="-" horiz-adv-x="296" 
d="M271 309v-120h-246v120h246z" />
    <glyph glyph-name="period" unicode="." horiz-adv-x="296" 
d="M56 86q0 38 27 65t65 27t65 -27t27 -65t-27 -65t-65 -27t-65 27t-27 65z" />
    <glyph glyph-name="slash" unicode="/" horiz-adv-x="407" 
d="M-3 -18l299 779l114 -35l-300 -779z" />
    <glyph glyph-name="zero" unicode="0" horiz-adv-x="592" 
d="M33 354q0 54 7 103t25.5 98t47 84.5t75.5 58t108 22.5t108 -22.5t75.5 -58t47 -84.5t25.5 -98t7 -103t-7 -103t-25.5 -98t-47 -84.5t-75.5 -58t-108 -22.5t-108 22.5t-75.5 58t-47 84.5t-25.5 98t-7 103zM183 354q0 -228 113 -228t113 228t-113 228t-113 -228z" />
    <glyph glyph-name="one" unicode="1" horiz-adv-x="592" 
d="M288 0v540l-142 -125l-85 98l231 195h140v-708h-144z" />
    <glyph glyph-name="two" unicode="2" horiz-adv-x="592" 
d="M49 0v159l275 247q22 20 30.5 29t20.5 29.5t12 40.5q0 35 -25.5 56t-61.5 21q-40 0 -64.5 -25t-27.5 -65l-150 11q7 106 74.5 161.5t175.5 55.5q101 0 165 -55t64 -158q0 -63 -23.5 -106.5t-69.5 -83.5l-215 -185h314v-132h-494z" />
    <glyph glyph-name="three" unicode="3" horiz-adv-x="592" 
d="M216 299v130h49q114 0 114 79q0 32 -25.5 53t-62.5 21q-34 0 -57.5 -18.5t-30.5 -47.5l-165 34q22 88 89 129t163 41q102 0 170.5 -50t68.5 -147q0 -60 -31.5 -101.5t-89.5 -53.5v-3q62 -8 97.5 -54.5t35.5 -110.5q0 -102 -72.5 -157t-182.5 -55q-99 0 -166 45.5
t-88 137.5l158 37q16 -82 105 -82q47 0 71.5 25t24.5 66q0 23 -9 39t-20.5 24.5t-33 12.5t-36.5 5t-41 1h-35z" />
    <glyph glyph-name="four" unicode="4" horiz-adv-x="592" 
d="M333 0v142h-309v126l289 440h164v-440h91v-126h-91v-142h-144zM333 268v244h-2l-157 -244h159z" />
    <glyph glyph-name="five" unicode="5" horiz-adv-x="592" 
d="M517 708v-132h-281l-3 -109q23 8 63 8q109 0 177 -63.5t68 -170.5q0 -117 -75.5 -185t-194.5 -68q-93 0 -154.5 46t-84.5 135l157 36q6 -39 32 -62t65 -23q47 0 76 30t29 76q0 44 -25.5 71.5t-59.5 36.5t-78 9q-71 0 -147 -26l8 391h428z" />
    <glyph glyph-name="six" unicode="6" horiz-adv-x="592" 
d="M453 708l-166 -253q28 7 49 7q98 0 160 -66.5t62 -164.5q0 -108 -75.5 -175.5t-188.5 -67.5t-188.5 67.5t-75.5 175.5q0 48 13.5 93t27.5 70t44 72l155 242h183zM408 237q0 48 -32 79.5t-82 31.5t-82 -31.5t-32 -79.5t32 -79.5t82 -31.5t82 31.5t32 79.5z" />
    <glyph glyph-name="seven" unicode="7" horiz-adv-x="592" 
d="M97 0l290 570h-350v138h518v-132l-283 -576h-175z" />
    <glyph glyph-name="eight" unicode="8" horiz-adv-x="592" 
d="M59 525q0 94 67 144.5t170 50.5t170 -50.5t67 -144.5q0 -58 -31.5 -99.5t-88.5 -57.5v-2q64 -17 98 -61.5t34 -110.5q0 -98 -72 -152t-177 -54t-177 54t-72 152q0 66 34 110.5t98 61.5v2q-57 16 -88.5 57.5t-31.5 99.5zM209 504q0 -34 24.5 -56.5t62.5 -22.5t62.5 22.5
t24.5 56.5q0 33 -24.5 55.5t-62.5 22.5t-62.5 -22.5t-24.5 -55.5zM197 215q0 -37 28 -63t71 -26t71 26t28 63q0 38 -27.5 64t-71.5 26t-71.5 -26t-27.5 -64z" />
    <glyph glyph-name="nine" unicode="9" horiz-adv-x="592" 
d="M139 0l166 253q-28 -7 -49 -7q-98 0 -160 66.5t-62 164.5q0 108 75.5 175.5t188.5 67.5t188.5 -67.5t75.5 -175.5q0 -48 -13.5 -93t-27.5 -70t-44 -72l-155 -242h-183zM184 471q0 -48 32 -79.5t82 -31.5t82 31.5t32 79.5t-32 79.5t-82 31.5t-82 -31.5t-32 -79.5z" />
    <glyph glyph-name="colon" unicode=":" horiz-adv-x="296" 
d="M56 86q0 38 27 65t65 27t65 -27t27 -65t-27 -65t-65 -27t-65 27t-27 65zM56 406q0 38 27 65t65 27t65 -27t27 -65t-27 -65t-65 -27t-65 27t-27 65z" />
    <glyph glyph-name="semicolon" unicode=";" horiz-adv-x="296" 
d="M17 -120l74 282h144l-90 -282h-128zM56 406q0 38 27 65t65 27t65 -27t27 -65t-27 -65t-65 -27t-65 27t-27 65z" />
    <glyph glyph-name="less" unicode="&#x3c;" horiz-adv-x="666" 
d="M586 564v-136l-317 -124v-2l317 -124v-136l-506 198v126z" />
    <glyph glyph-name="equal" unicode="=" horiz-adv-x="666" 
d="M59 336v126h548v-126h-548zM59 144v126h548v-126h-548z" />
    <glyph glyph-name="greater" unicode="&#x3e;" horiz-adv-x="666" 
d="M80 42v136l317 124v2l-317 124v136l506 -198v-126z" />
    <glyph glyph-name="question" unicode="?" horiz-adv-x="556" 
d="M216 234v44q0 56 35 90q18 18 49.5 46t44 40t23.5 30t11 34q0 32 -20 51t-52 19q-45 0 -70.5 -25t-28.5 -64l-154 10q10 104 77 160.5t173 56.5q96 0 160.5 -52t64.5 -145q0 -57 -26.5 -99t-97.5 -98q-39 -30 -39 -69v-29h-150zM199 86q0 38 27 65t65 27t65 -27t27 -65
t-27 -65t-65 -27t-65 27t-27 65z" />
    <glyph glyph-name="at" unicode="@" horiz-adv-x="800" 
d="M475 364q0 41 -19 66.5t-55 25.5q-45 0 -72.5 -35.5t-27.5 -88.5q0 -89 69 -89q57 0 81 35.5t24 85.5zM605 534l-37 -197q-9 -43 -9 -66q0 -28 27 -28q35 0 60.5 38t25.5 111q0 117 -71.5 180.5t-189.5 63.5q-124 0 -200.5 -79.5t-76.5 -203.5q0 -129 82.5 -205
t211.5 -76q112 0 189 61h110q-53 -73 -133.5 -112t-173.5 -39q-162 0 -275 105.5t-113 265.5q0 159 111.5 266t270.5 107q90 0 169.5 -37t132 -114t52.5 -178q0 -60 -17.5 -106.5t-43 -71.5t-58 -41t-57 -20.5t-46.5 -4.5q-39 0 -58.5 16t-20.5 38h-2q-52 -54 -128 -54
q-64 0 -104 47t-40 121q0 92 55 158.5t145 66.5q80 0 108 -57h2l8 45h94z" />
    <glyph glyph-name="A" unicode="A" horiz-adv-x="741" 
d="M-1 0l306 708h129l308 -708h-176l-61 150h-275l-59 -150h-172zM452 282l-87 220l-86 -220h173z" />
    <glyph glyph-name="B" unicode="B" horiz-adv-x="648" 
d="M72 0v708h264q53 0 94 -7t81 -25t62 -55.5t22 -92.5q0 -58 -33 -98t-89 -58v-2q70 -9 112.5 -56.5t42.5 -116.5q0 -53 -23.5 -93t-63 -61.5t-84.5 -32t-95 -10.5h-290zM228 576v-151h113q41 0 69.5 18.5t28.5 58.5q0 74 -105 74h-106zM228 293v-161h140q42 0 73 20t31 63
q0 78 -126 78h-118z" />
    <glyph glyph-name="C" unicode="C" horiz-adv-x="685" 
d="M655 622l-120 -98q-49 58 -134 58q-89 0 -147 -64.5t-58 -163.5q0 -98 57.5 -163t142.5 -65q95 0 146 76l130 -97q-43 -61 -111.5 -92t-144.5 -31q-168 0 -275 102t-107 270t107 270t275 102q67 0 132 -25t107 -79z" />
    <glyph glyph-name="D" unicode="D" horiz-adv-x="759" 
d="M72 0v708h234q89 0 162.5 -19.5t132 -60.5t91.5 -111.5t33 -164.5q0 -110 -56 -191.5t-145 -121t-197 -39.5h-255zM228 564v-420h81q254 0 254 216q0 99 -69 151.5t-174 52.5h-92z" />
    <glyph glyph-name="E" unicode="E" horiz-adv-x="630" 
d="M78 0v708h481v-144h-325v-132h307v-144h-307v-144h343v-144h-499z" />
    <glyph glyph-name="F" unicode="F" horiz-adv-x="593" 
d="M78 0v708h475v-144h-319v-144h295v-144h-295v-276h-156z" />
    <glyph glyph-name="G" unicode="G" horiz-adv-x="778" 
d="M713 420v-370q-130 -68 -297 -68q-168 0 -275 102t-107 270t107 270t275 102q184 0 282 -91l-110 -120q-64 67 -172 67q-99 0 -159.5 -64t-60.5 -164t60.5 -164t159.5 -64q84 0 147 35v115h-127v144h277z" />
    <glyph glyph-name="H" unicode="H" horiz-adv-x="759" 
d="M72 0v708h156v-264h303v264h156v-708h-156v306h-303v-306h-156z" />
    <glyph glyph-name="I" unicode="I" horiz-adv-x="296" 
d="M70 0v708h156v-708h-156z" />
    <glyph glyph-name="J" unicode="J" horiz-adv-x="500" 
d="M438 708v-471q0 -55 -9 -96t-31.5 -79.5t-69.5 -59t-116 -20.5q-87 0 -143.5 41t-73.5 124l143 35q3 -25 23.5 -43.5t46.5 -18.5q21 0 35.5 9.5t22 21.5t11.5 33.5t4.5 34.5t0.5 35v454h156z" />
    <glyph glyph-name="K" unicode="K" horiz-adv-x="722" 
d="M78 0v708h156v-294l275 294h204l-315 -329l342 -379h-218l-288 336v-336h-156z" />
    <glyph glyph-name="L" unicode="L" horiz-adv-x="537" 
d="M78 0v708h156v-564h289v-144h-445z" />
    <glyph glyph-name="M" unicode="M" horiz-adv-x="944" 
d="M72 0v708h236l163 -462h2l164 462h235v-708h-156v543h-2l-186 -543h-119l-179 543h-2v-543h-156z" />
    <glyph glyph-name="N" unicode="N" horiz-adv-x="815" 
d="M72 0v708h212l301 -492h2v492h156v-708h-204l-309 504h-2v-504h-156z" />
    <glyph glyph-name="O" unicode="O" horiz-adv-x="832" 
d="M34 354q0 168 107 270t275 102t275 -102t107 -270t-107 -270t-275 -102t-275 102t-107 270zM196 354q0 -100 60.5 -164t159.5 -64t159.5 64t60.5 164t-60.5 164t-159.5 64t-159.5 -64t-60.5 -164z" />
    <glyph glyph-name="P" unicode="P" horiz-adv-x="630" 
d="M72 0v708h263q269 0 269 -215q0 -217 -262 -217h-114v-276h-156zM228 576v-168h104q110 0 110 85q0 83 -134 83h-80z" />
    <glyph glyph-name="Q" unicode="Q" horiz-adv-x="852" 
d="M847 120v-120h-429q-169 0 -276.5 97.5t-107.5 265.5q0 158 109 260.5t269 102.5t269 -102.5t109 -260.5q0 -79 -35.5 -144.5t-105.5 -96.5v-2h198zM196 363q0 -91 63.5 -155t152.5 -64t152.5 64t63.5 155t-63.5 155t-152.5 64t-152.5 -64t-63.5 -155z" />
    <glyph glyph-name="R" unicode="R" horiz-adv-x="648" 
d="M72 0v708h274q267 0 267 -215q0 -76 -40 -128.5t-113 -65.5l180 -299h-187l-148 283h-77v-283h-156zM228 576v-161h92q28 0 45.5 2t40 8.5t34 24t11.5 44.5q0 82 -121 82h-102z" />
    <glyph glyph-name="S" unicode="S" horiz-adv-x="574" 
d="M529 652l-107 -117q-18 23 -50 35t-63 12q-39 0 -72 -18.5t-33 -54.5q0 -26 18 -43.5t46.5 -28t63.5 -20t70 -23.5t63.5 -34.5t46.5 -57.5t18 -87q0 -113 -78 -173t-195 -60q-142 0 -238 89l111 122q24 -31 60.5 -49t75.5 -18q42 0 75 19.5t33 54.5q0 30 -24.5 51
t-61.5 31t-80 26t-80 35t-61.5 58.5t-24.5 94.5q0 108 79.5 169t190.5 61q133 0 217 -74z" />
    <glyph glyph-name="T" unicode="T" horiz-adv-x="574" 
d="M209 0v570h-202v138h560v-138h-202v-570h-156z" />
    <glyph glyph-name="U" unicode="U" horiz-adv-x="741" 
d="M669 708v-435q0 -130 -77.5 -210.5t-220.5 -80.5t-221 80.5t-78 210.5v435h156v-429q0 -66 40.5 -109.5t102.5 -43.5q61 0 101.5 44t40.5 109v429h156z" />
    <glyph glyph-name="V" unicode="V" horiz-adv-x="704" 
d="M285 0l-283 708h178l175 -464h2l178 464h167l-292 -708h-125z" />
    <glyph glyph-name="W" unicode="W" horiz-adv-x="1000" 
d="M208 0l-210 708h170l113 -454h2l148 454h145l147 -466h2l119 466h158l-207 -708h-139l-156 490h-2l-156 -490h-134z" />
    <glyph glyph-name="X" unicode="X" horiz-adv-x="722" 
d="M0 0l248 370l-234 338h196l151 -248l145 248h189l-229 -335l256 -373h-196l-173 285l-168 -285h-185z" />
    <glyph glyph-name="Y" unicode="Y" horiz-adv-x="648" 
d="M246 0v302l-266 406h194l150 -265l159 265h185l-266 -406v-302h-156z" />
    <glyph glyph-name="Z" unicode="Z" horiz-adv-x="630" 
d="M35 0v144l359 426h-346v138h535v-138l-352 -426h364v-144h-560z" />
    <glyph glyph-name="bracketleft" unicode="[" horiz-adv-x="296" 
d="M276 732v-90h-90v-708h90v-90h-210v888h210z" />
    <glyph glyph-name="backslash" unicode="\" horiz-adv-x="407" 
d="M410 -18l-113 -35l-300 779l114 35z" />
    <glyph glyph-name="bracketright" unicode="]" horiz-adv-x="296" 
d="M20 -156v90h90v708h-90v90h210v-888h-210z" />
    <glyph glyph-name="asciicircum" unicode="^" horiz-adv-x="666" 
d="M80 343l180 365h146l180 -365h-142l-111 238l-112 -238h-141z" />
    <glyph glyph-name="underscore" unicode="_" horiz-adv-x="500" 
d="M500 -125h-500v50h500v-50z" />
    <glyph glyph-name="grave" unicode="`" 
d="M131 708l101 -144h-132l-173 144h204z" />
    <glyph glyph-name="a" unicode="a" horiz-adv-x="537" 
d="M358 0v61h-2q-46 -73 -154 -73q-72 0 -122.5 40t-50.5 110q0 35 12.5 62.5t30.5 45t48 30t55.5 19t63.5 10t61 4t58 0.5q0 39 -28 63t-68 24q-70 0 -122 -58l-80 82q83 78 214 78q125 0 173.5 -61t48.5 -190v-247h-138zM358 213h-37q-148 0 -148 -70q0 -25 21.5 -39
t49.5 -14q47 0 80.5 24t33.5 67v32z" />
    <glyph glyph-name="b" unicode="b" horiz-adv-x="630" 
d="M67 0v756h150v-322h2q46 64 154 64q100 0 161 -76.5t61 -182.5q0 -111 -66 -181t-173 -70q-47 0 -88.5 23t-60.5 53h-2v-64h-138zM205 243q0 -55 32 -89t88 -34t88 34t32 89t-32 89t-88 34t-88 -34t-32 -89z" />
    <glyph glyph-name="c" unicode="c" horiz-adv-x="482" 
d="M481 433l-99 -104q-26 37 -74 37q-56 0 -88 -34t-32 -89t32 -89t88 -34q43 0 74 37l99 -104q-64 -65 -173 -65q-115 0 -192.5 70.5t-77.5 184.5t77.5 184.5t192.5 70.5q109 0 173 -65z" />
    <glyph glyph-name="d" unicode="d" horiz-adv-x="630" 
d="M563 756v-756h-138v64h-2q-19 -30 -60.5 -53t-88.5 -23q-107 0 -173 70t-66 181q0 106 61 182.5t161 76.5q108 0 154 -64h2v322h150zM425 243q0 55 -32 89t-88 34t-88 -34t-32 -89t32 -89t88 -34t88 34t32 89z" />
    <glyph glyph-name="e" unicode="e" horiz-adv-x="574" 
d="M408 161l105 -77q-36 -45 -91 -70.5t-114 -25.5q-115 0 -192.5 70.5t-77.5 184.5t77.5 184.5t192.5 70.5q105 0 166.5 -69t61.5 -186v-47h-348q9 -43 39.5 -68.5t73.5 -25.5q64 0 107 59zM188 298h198q1 38 -25.5 65t-66.5 27q-47 0 -75 -27t-31 -65z" />
    <glyph glyph-name="f" unicode="f" horiz-adv-x="370" 
d="M105 0v366h-99v120h99v86q0 44 7 76t26.5 61t58.5 44t98 15q52 0 88 -9l-7 -127q-28 10 -49 10q-38 0 -55 -16.5t-17 -62.5v-77h111v-120h-111v-366h-150z" />
    <glyph glyph-name="g" unicode="g" horiz-adv-x="630" 
d="M563 486v-445q0 -138 -70.5 -209.5t-210.5 -71.5q-155 0 -244 71l83 124q74 -63 158 -63q66 0 100 32.5t34 86.5v47h-2q-24 -33 -61.5 -48.5t-75.5 -15.5q-107 0 -173 70t-66 181q0 102 61.5 177.5t160.5 75.5q59 0 102.5 -23t63.5 -53h2v64h138zM185 246q0 -48 35 -84
t85 -36t85 36t35 84t-35 84t-85 36t-85 -36t-35 -84z" />
    <glyph glyph-name="h" unicode="h" horiz-adv-x="574" 
d="M53 756h150v-336h2q12 31 48.5 54.5t87.5 23.5q105 0 142.5 -59.5t37.5 -170.5v-268h-150v238q0 22 -0.5 35.5t-4.5 33.5t-12 31t-23.5 19.5t-37.5 8.5q-53 0 -71.5 -33.5t-18.5 -90.5v-242h-150v756z" />
    <glyph glyph-name="i" unicode="i" 
d="M55 0v486h150v-486h-150zM43 639q0 36 25.5 61.5t61.5 25.5t61.5 -25.5t25.5 -61.5t-25.5 -61.5t-61.5 -25.5t-61.5 25.5t-25.5 61.5z" />
    <glyph glyph-name="j" unicode="j" 
d="M205 486v-522q0 -99 -41 -151.5t-139 -52.5q-45 0 -70 8l8 133q18 -9 39 -9q18 0 30 9t16.5 27t5.5 30.5t1 31.5v496h150zM43 639q0 36 25.5 61.5t61.5 25.5t61.5 -25.5t25.5 -61.5t-25.5 -61.5t-61.5 -25.5t-61.5 25.5t-25.5 61.5z" />
    <glyph glyph-name="k" unicode="k" horiz-adv-x="556" 
d="M53 0v756h150v-462l166 192h184l-193 -219l198 -267h-189l-164 246h-2v-246h-150z" />
    <glyph glyph-name="l" unicode="l" 
d="M55 0v756h150v-756h-150z" />
    <glyph glyph-name="m" unicode="m" horiz-adv-x="870" 
d="M53 0v486h144v-66h2q17 32 54 55t88 23q112 0 150 -87q49 87 154 87q172 0 172 -211v-287h-150v283q0 83 -66 83q-91 0 -91 -109v-257h-150v257q0 22 -1 33.5t-6.5 33t-20.5 32t-39 10.5q-53 0 -71.5 -33.5t-18.5 -90.5v-242h-150z" />
    <glyph glyph-name="n" unicode="n" horiz-adv-x="574" 
d="M53 0v486h144v-66h2q17 32 54 55t88 23q105 0 142.5 -59.5t37.5 -170.5v-268h-150v238q0 22 -0.5 35.5t-4.5 33.5t-12 31t-23.5 19.5t-37.5 8.5q-53 0 -71.5 -33.5t-18.5 -90.5v-242h-150z" />
    <glyph glyph-name="o" unicode="o" horiz-adv-x="610" 
d="M35 243q0 114 77.5 184.5t192.5 70.5t192.5 -70.5t77.5 -184.5t-77.5 -184.5t-192.5 -70.5t-192.5 70.5t-77.5 184.5zM185 243q0 -55 32 -89t88 -34t88 34t32 89t-32 89t-88 34t-88 -34t-32 -89z" />
    <glyph glyph-name="p" unicode="p" horiz-adv-x="630" 
d="M67 -228v714h138v-64h2q19 30 60.5 53t88.5 23q107 0 173 -70t66 -181q0 -106 -61 -182.5t-161 -76.5q-108 0 -154 64h-2v-280h-150zM205 243q0 -55 32 -89t88 -34t88 34t32 89t-32 89t-88 34t-88 -34t-32 -89z" />
    <glyph glyph-name="q" unicode="q" horiz-adv-x="630" 
d="M563 486v-714h-150v280h-2q-46 -64 -154 -64q-100 0 -161 76.5t-61 182.5q0 111 66 181t173 70q47 0 88.5 -23t60.5 -53h2v64h138zM425 243q0 55 -32 89t-88 34t-88 -34t-32 -89t32 -89t88 -34t88 34t32 89z" />
    <glyph glyph-name="r" unicode="r" horiz-adv-x="407" 
d="M53 0v486h150v-78h2q49 90 140 90q33 0 50 -5v-137q-35 10 -64 10q-41 0 -67.5 -11t-39.5 -35t-17 -50t-4 -67v-203h-150z" />
    <glyph glyph-name="s" unicode="s" horiz-adv-x="463" 
d="M420 434l-92 -91q-33 41 -87 41q-22 0 -38.5 -10t-16.5 -30q0 -16 18.5 -26.5t47 -15t61 -14t61 -23t47 -44t18.5 -73.5q0 -44 -20 -77t-53.5 -50t-71 -25t-79.5 -8q-126 0 -191 66l91 101q44 -53 106 -53q68 0 68 35q0 21 -26 32t-63 18.5t-74.5 19.5t-63.5 44t-26 83
q0 80 60 122t144 42q120 0 180 -64z" />
    <glyph glyph-name="t" unicode="t" horiz-adv-x="407" 
d="M384 486v-120h-132v-162q0 -46 13 -68t58 -22q46 0 61 14v-125q-41 -15 -105 -15q-80 0 -128.5 35.5t-48.5 111.5v231h-96v120h96v144h150v-144h132z" />
    <glyph glyph-name="u" unicode="u" horiz-adv-x="574" 
d="M521 486v-486h-144v66h-2q-17 -32 -54 -55t-88 -23q-105 0 -142.5 59.5t-37.5 170.5v268h150v-238q0 -22 0.5 -35.5t4.5 -33.5t12 -31t23.5 -19.5t37.5 -8.5q53 0 71.5 33.5t18.5 90.5v242h150z" />
    <glyph glyph-name="v" unicode="v" horiz-adv-x="556" 
d="M203 0l-201 486h162l123 -330h2l114 330h151l-192 -486h-159z" />
    <glyph glyph-name="w" unicode="w" horiz-adv-x="833" 
d="M173 0l-178 486h160l99 -305h2l83 305h164l90 -305h2l91 305h152l-173 -486h-148l-101 323h-2l-90 -323h-151z" />
    <glyph glyph-name="x" unicode="x" horiz-adv-x="556" 
d="M-8 0l192 260l-162 226h177l86 -132l83 132h167l-158 -226l187 -260h-177l-106 162l-114 -162h-175z" />
    <glyph glyph-name="y" unicode="y" horiz-adv-x="556" 
d="M553 486l-220 -565q-15 -39 -23.5 -57.5t-25 -43t-35 -34.5t-49.5 -18t-73 -8q-58 0 -112 18l20 123q35 -15 70 -15q33 0 52.5 11t27 24.5t20.5 46.5l11 28l-213 490h162l125 -321h2l107 321h154z" />
    <glyph glyph-name="z" unicode="z" horiz-adv-x="500" 
d="M34 0v150l252 216h-246v120h420v-144l-264 -222h270v-120h-432z" />
    <glyph glyph-name="braceleft" unicode="{" horiz-adv-x="370" 
d="M356 -42v-114h-105q-57 0 -93 36t-36 110v172q0 22 -12.5 37t-32.5 21t-35 8.5t-28 2.5v114q13 0 28 2.5t35 8.5t32.5 21t12.5 37v173q0 74 35 109.5t94 35.5h105v-114h-49q-22 0 -36 -6t-19.5 -16.5t-7.5 -19.5t-2 -22v-161q0 -33 -9 -54.5t-26.5 -31t-30.5 -13
t-34 -5.5v-2q21 -1 34 -4.5t30.5 -13t26.5 -31t9 -54.5v-162q0 -13 2 -22t7.5 -19.5t19.5 -16.5t36 -6h49z" />
    <glyph glyph-name="bar" unicode="|" horiz-adv-x="222" 
d="M48 750h126v-1000h-126v1000z" />
    <glyph glyph-name="braceright" unicode="}" horiz-adv-x="370" 
d="M14 618v114h108q55 0 90.5 -36t35.5 -110v-172q0 -22 12.5 -37t32 -21t34.5 -8.5t29 -2.5v-114q-14 0 -29 -2.5t-34.5 -8.5t-32 -21t-12.5 -37v-173q0 -74 -35 -109.5t-94 -35.5h-105v114h49q22 0 36 6t19.5 16.5t7.5 19.5t2 22v161q0 33 9 54.5t26.5 31t30.5 13t34 5.5
v2q-21 1 -34 4.5t-30.5 13t-26.5 31t-9 54.5v162q0 13 -2 22t-7.5 19.5t-19.5 16.5t-36 6h-49z" />
    <glyph glyph-name="asciitilde" unicode="~" horiz-adv-x="666" 
d="M528 400l36 -108q-45 -86 -125 -86q-39 0 -111 32l-21.5 9.5t-23 10l-20 8t-20.5 6.5t-17 2q-19 0 -37 -12.5t-25.5 -22l-25.5 -33.5l-36 108q45 86 125 86q39 0 111 -32l21.5 -9.5t23 -10l20 -8t20.5 -6.5t17 -2q19 0 37 12.5t25.5 22z" />
    <glyph glyph-name="uni00A0" unicode="&#xa0;" horiz-adv-x="296" 
 />
    <glyph glyph-name="exclamdown" unicode="&#xa1;" horiz-adv-x="444" 
d="M147 -222v474h150v-474h-150zM314 400q0 -38 -27 -65t-65 -27t-65 27t-27 65t27 65t65 27t65 -27t27 -65z" />
    <glyph glyph-name="cent" unicode="&#xa2;" horiz-adv-x="592" 
d="M310 -81v69q-105 6 -169.5 78t-64.5 177q0 106 63.5 174t170.5 81v66h60v-66q99 0 172 -62l-96 -102q-37 38 -76 38v-258q39 0 83 43l91 -107q-34 -33 -82.5 -47.5t-91.5 -14.5v-69h-60zM310 114v258q-44 -9 -67 -44t-23 -84q0 -102 90 -130z" />
    <glyph glyph-name="sterling" unicode="&#xa3;" horiz-adv-x="592" 
d="M48 0v114h96v198h-96v102h96v71q0 96 66.5 165.5t181.5 69.5q134 0 209 -68l-100 -107q-43 43 -91 43q-62 0 -89 -36t-27 -89v-49h156v-102h-156v-198h253v-114h-499z" />
    <glyph glyph-name="currency" unicode="&#xa4;" horiz-adv-x="592" 
d="M36 153l49 49q-49 68 -49 152t49 152l-49 49l60 59l49 -48q67 48 151 48t151 -48l49 48l60 -59l-49 -49q49 -67 49 -152t-49 -152l49 -49l-60 -59l-49 48q-67 -48 -151 -48t-151 48l-49 -48zM168 354q0 -56 37.5 -95t90.5 -39t90.5 39t37.5 95t-37.5 95t-90.5 39
t-90.5 -39t-37.5 -95z" />
    <glyph glyph-name="yen" unicode="&#xa5;" horiz-adv-x="592" 
d="M218 0v158h-169v96h169v48l-12 20h-157v96h100l-185 290h182l150 -264l150 264h182l-185 -290h100v-96h-157l-12 -20v-48h169v-96h-169v-158h-156z" />
    <glyph glyph-name="brokenbar" unicode="&#xa6;" horiz-adv-x="222" 
d="M48 675h126v-350h-126v350zM48 175h126v-350h-126v350z" />
    <glyph glyph-name="section" unicode="&#xa7;" horiz-adv-x="592" 
d="M517 617l-126 -72q-10 28 -35.5 44.5t-56.5 16.5q-26 0 -45.5 -14t-19.5 -39q0 -27 32 -48t78 -38.5t92 -38.5t78 -59t32 -88q0 -40 -23.5 -76t-60.5 -54q55 -44 55 -119q0 -62 -40 -105t-93.5 -60.5t-112.5 -17.5q-174 0 -233 126l128 63q8 -34 40 -51.5t69 -17.5
q30 0 55 12t25 40q0 22 -22.5 39.5t-55.5 29.5t-72.5 30t-72.5 37.5t-55.5 55t-22.5 80.5q0 94 87 148q-63 42 -63 115q0 55 33.5 95t81 57.5t100.5 17.5q73 0 134.5 -25.5t89.5 -83.5zM272 239l102 -47q34 20 34 61q0 44 -65 72l-116 55q-35 -20 -35 -59q0 -17 6 -30
t21.5 -23.5t23 -14.5t29.5 -14z" />
    <glyph glyph-name="dieresis" unicode="&#xa8;" 
d="M25 558q-35 0 -59 25.5t-24 60.5q0 33 24 57.5t57 24.5q35 0 61 -23.5t26 -58.5q0 -36 -24.5 -61t-60.5 -25zM233 558q-35 0 -59 25.5t-24 60.5q0 33 24 57.5t57 24.5q35 0 61 -23.5t26 -58.5q0 -36 -24.5 -61t-60.5 -25z" />
    <glyph glyph-name="copyright" unicode="&#xa9;" horiz-adv-x="800" 
d="M494 300h94q-10 -75 -60 -116t-118 -41q-92 0 -145.5 60.5t-53.5 153.5q0 95 51.5 152.5t145.5 57.5q71 0 120 -38t60 -110h-94q-12 58 -78 58q-48 0 -72.5 -31.5t-24.5 -86.5q0 -56 26 -91t69 -35q76 0 80 67zM28 354q0 154 109 263t263 109t263 -109t109 -263
t-109 -263t-263 -109t-263 109t-109 263zM130 354q0 -116 79 -199t191 -83t191 83t79 199t-79 199t-191 83t-191 -83t-79 -199z" />
    <glyph glyph-name="ordfeminine" unicode="&#xaa;" horiz-adv-x="349" 
d="M230 431v37h-2q-19 -43 -93 -43q-47 0 -79.5 23.5t-32.5 65.5q0 29 15 49.5t35.5 31t52 16.5t53 7t51.5 1q0 19 -15.5 33t-40.5 14q-43 0 -79 -36l-52 49q55 47 139 47q81 0 112.5 -36t31.5 -111v-148h-96zM236 540v19h-18q-93 0 -93 -41q0 -27 43 -27q28 0 48 15.5
t20 33.5z" />
    <glyph glyph-name="guillemotleft" unicode="&#xab;" horiz-adv-x="538" 
d="M268 422l-116 -173l116 -173l-91 -61l-159 234l159 234zM510 422l-116 -173l116 -173l-91 -61l-159 234l159 234z" />
    <glyph glyph-name="logicalnot" unicode="&#xac;" horiz-adv-x="666" 
d="M481 142v194h-422v126h548v-320h-126z" />
    <glyph glyph-name="uni00AD" unicode="&#xad;" horiz-adv-x="296" 
d="M271 309v-120h-246v120h246z" />
    <glyph glyph-name="registered" unicode="&#xae;" horiz-adv-x="800" 
d="M257 163v390h138q166 0 166 -126q0 -97 -91 -109l100 -155h-105l-89 150h-17v-150h-102zM358 475v-84h41q17 0 27.5 1.5t21.5 11.5t11 29q0 42 -60 42h-41zM28 354q0 154 109 263t263 109t263 -109t109 -263t-109 -263t-263 -109t-263 109t-109 263zM130 354
q0 -116 79 -199t191 -83t191 83t79 199t-79 199t-191 83t-191 -83t-79 -199z" />
    <glyph glyph-name="macron" unicode="&#xaf;" 
d="M300 687v-96h-340v96h340z" />
    <glyph glyph-name="degree" unicode="&#xb0;" horiz-adv-x="400" 
d="M200 460q37 0 62.5 25.5t25.5 62.5t-25.5 62.5t-62.5 25.5t-62.5 -25.5t-25.5 -62.5t25.5 -62.5t62.5 -25.5zM200 376q-71 0 -121.5 50.5t-50.5 121.5t50.5 121.5t121.5 50.5t121.5 -50.5t50.5 -121.5t-50.5 -121.5t-121.5 -50.5z" />
    <glyph glyph-name="plusminus" unicode="&#xb1;" horiz-adv-x="666" 
d="M59 323v126h211v128h126v-128h211v-126h-211v-128h-126v128h-211zM59 29v126h548v-126h-548z" />
    <glyph glyph-name="twosuperior" unicode="&#xb2;" horiz-adv-x="385" 
d="M24 289v89l186 158q43 36 43 55q0 39 -59 39q-28 0 -46 -15.5t-20 -38.5l-102 6q5 69 51.5 103.5t121.5 34.5q72 0 117 -32t45 -88q0 -47 -13.5 -69t-47.5 -48l-140 -108v-2h201v-84h-337z" />
    <glyph glyph-name="threesuperior" unicode="&#xb3;" horiz-adv-x="385" 
d="M143 468v84h34q74 0 74 45q0 33 -56 33q-53 0 -64 -44l-110 20q30 114 174 114q69 0 116.5 -29.5t47.5 -84.5q0 -36 -21.5 -61t-61.5 -32v-2q42 -5 67 -33.5t25 -66.5q0 -62 -50 -95t-126 -33q-147 0 -175 118l109 22q11 -50 66 -50q68 0 68 48q0 16 -7 26.5t-22.5 14.5
t-28 5t-34.5 1h-25z" />
    <glyph glyph-name="acute" unicode="&#xb4;" 
d="M30 564l101 144h204l-173 -144h-132z" />
    <glyph glyph-name="mu" unicode="&#xb5;" horiz-adv-x="574" 
d="M521 486v-486h-144v66h-2q-17 -32 -54 -55t-88 -23q-17 0 -30 3v-219h-150v714h150v-238q0 -22 0.5 -35.5t4.5 -33.5t12 -31t23.5 -19.5t37.5 -8.5q53 0 71.5 33.5t18.5 90.5v242h150z" />
    <glyph glyph-name="paragraph" unicode="&#xb6;" horiz-adv-x="620" 
d="M236 -133v492q-108 0 -165.5 45t-57.5 126q0 100 64.5 139t181.5 39h302v-841h-108v745h-109v-745h-108z" />
    <glyph glyph-name="periodcentered" unicode="&#xb7;" horiz-adv-x="296" 
d="M56 283q0 38 27 65t65 27t65 -27t27 -65t-27 -65t-65 -27t-65 27t-27 65z" />
    <glyph glyph-name="cedilla" unicode="&#xb8;" 
d="M168 0l-41 -60q36 0 60.5 -4.5t45 -24t20.5 -54.5q0 -49 -45 -73t-94 -24q-63 0 -125 30l25 47q45 -17 77 -17q66 0 66 32q0 16 -16 25t-34 9q-17 0 -36 -8l-32 29l62 93h67z" />
    <glyph glyph-name="onesuperior" unicode="&#xb9;" horiz-adv-x="385" 
d="M183 289v317l-89 -75l-58 66l159 117h96v-425h-108z" />
    <glyph glyph-name="ordmasculine" unicode="&#xba;" horiz-adv-x="397" 
d="M23 575q0 67 50 109t125 42t125.5 -42t50.5 -109q0 -69 -50 -109.5t-126 -40.5t-125.5 40.5t-49.5 109.5zM125 575q1 -28 20.5 -47t52.5 -19t53.5 19t20.5 47t-20.5 47.5t-53.5 19.5t-53 -19t-20 -48z" />
    <glyph glyph-name="guillemotright" unicode="&#xbb;" horiz-adv-x="538" 
d="M270 76l116 173l-116 173l91 61l159 -234l-159 -234zM28 76l116 173l-116 173l91 61l159 -234l-159 -234z" />
    <glyph glyph-name="onequarter" unicode="&#xbc;" horiz-adv-x="889" 
d="M716 0v85h-209v78l199 262h118v-256h57v-84h-57v-85h-108zM716 169v136h-2l-99 -136h101zM155 289v317l-89 -75l-58 66l159 117h96v-425h-108zM189 11l405 729l84 -47l-413 -725z" />
    <glyph glyph-name="onehalf" unicode="&#xbd;" horiz-adv-x="889" 
d="M155 289v317l-89 -75l-58 66l159 117h96v-425h-108zM544 0v89l186 158q43 36 43 55q0 39 -59 39q-28 0 -46 -15.5t-20 -38.5l-102 6q5 69 51.5 103.5t121.5 34.5q72 0 117 -32t45 -88q0 -47 -13.5 -69t-47.5 -48l-140 -108v-2h201v-84h-337zM189 11l405 729l84 -47
l-413 -725z" />
    <glyph glyph-name="threequarters" unicode="&#xbe;" horiz-adv-x="889" 
d="M720 0v85h-209v78l199 262h118v-256h57v-84h-57v-85h-108zM720 169v136h-2l-99 -136h101zM130 468v84h34q74 0 74 45q0 33 -56 33q-53 0 -64 -44l-109 20q28 114 173 114q69 0 116.5 -29.5t47.5 -84.5q0 -36 -21.5 -61t-61.5 -32v-2q42 -5 67 -33.5t25 -66.5
q0 -62 -50 -95t-126 -33q-147 0 -175 118l109 22q11 -50 66 -50q68 0 68 48q0 16 -7 26.5t-22.5 14.5t-28 5t-34.5 1h-25zM213 11l405 729l84 -47l-413 -725z" />
    <glyph glyph-name="questiondown" unicode="&#xbf;" horiz-adv-x="556" 
d="M340 252v-44q0 -56 -35 -90q-18 -18 -49.5 -46t-44 -40t-23.5 -30t-11 -34q0 -32 20 -51t52 -19q45 0 70.5 25t28.5 64l154 -10q-10 -104 -77 -160.5t-173 -56.5q-96 0 -160.5 52t-64.5 145q0 57 26.5 99t97.5 98q39 30 39 69v29h150zM357 400q0 -38 -27 -65t-65 -27
t-65 27t-27 65t27 65t65 27t65 -27t27 -65z" />
    <glyph glyph-name="Agrave" unicode="&#xc0;" horiz-adv-x="741" 
d="M-1 0l306 708h129l308 -708h-176l-61 150h-275l-59 -150h-172zM452 282l-87 220l-86 -220h173zM372 904l101 -144h-132l-173 144h204z" />
    <glyph glyph-name="Aacute" unicode="&#xc1;" horiz-adv-x="741" 
d="M-1 0l306 708h129l308 -708h-176l-61 150h-275l-59 -150h-172zM452 282l-87 220l-86 -220h173zM271 760l101 144h204l-173 -144h-132z" />
    <glyph glyph-name="Acircumflex" unicode="&#xc2;" horiz-adv-x="741" 
d="M-1 0l306 708h129l308 -708h-176l-61 150h-275l-59 -150h-172zM452 282l-87 220l-86 -220h173zM570 760h-138l-63 78l-62 -78h-135l119 144h163z" />
    <glyph glyph-name="Atilde" unicode="&#xc3;" horiz-adv-x="741" 
d="M-1 0l306 708h129l308 -708h-176l-61 150h-275l-59 -150h-172zM452 282l-87 220l-86 -220h173zM254 766h-79q9 57 42 97.5t85 40.5q36 0 87 -21q41 -15 56 -15q28 0 44 36h78q-24 -138 -130 -138q-34 0 -78 21t-63 21q-27 0 -42 -42z" />
    <glyph glyph-name="Adieresis" unicode="&#xc4;" horiz-adv-x="741" 
d="M-1 0l306 708h129l308 -708h-176l-61 150h-275l-59 -150h-172zM452 282l-87 220l-86 -220h173zM266 754q-35 0 -59 26t-24 60q0 33 24 57.5t57 24.5q36 0 61.5 -23.5t25.5 -58.5q0 -36 -24.5 -61t-60.5 -25zM474 754q-35 0 -59 26t-24 60q0 33 24 57.5t57 24.5
q36 0 61.5 -23.5t25.5 -58.5q0 -36 -24.5 -61t-60.5 -25z" />
    <glyph glyph-name="Aring" unicode="&#xc5;" horiz-adv-x="741" 
d="M-1 0l306 708h129l308 -708h-176l-61 150h-275l-59 -150h-172zM452 282l-87 220l-86 -220h173zM371 731q-45 0 -78 33t-33 78t33 78t78 33t78 -33t33 -78t-33 -78t-78 -33zM320 842q0 -21 15 -36t36 -15t36 15t15 36t-15 36t-36 15t-36 -15t-15 -36z" />
    <glyph glyph-name="AE" unicode="&#xc6;" horiz-adv-x="1037" 
d="M534 0v150h-263l-95 -150h-191l449 708h538v-144h-282v-132h258v-144h-258v-144h294v-144h-450zM534 282v282h-17l-179 -282h196z" />
    <glyph glyph-name="Ccedilla" unicode="&#xc7;" horiz-adv-x="685" 
d="M655 622l-120 -98q-49 58 -134 58q-89 0 -147 -64.5t-58 -163.5q0 -98 57.5 -163t142.5 -65q95 0 146 76l130 -97q-43 -61 -111.5 -92t-144.5 -31q-13 0 -19 1l-29 -43q36 0 60.5 -4.5t45 -24t20.5 -54.5q0 -49 -45 -73t-94 -24q-63 0 -125 30l25 47q45 -17 77 -17
q66 0 66 32q0 16 -16 25t-34 9q-17 0 -36 -8l-32 29l54 82q-136 24 -218 121.5t-82 243.5q0 168 107 270t275 102q67 0 132 -25t107 -79z" />
    <glyph glyph-name="Egrave" unicode="&#xc8;" horiz-adv-x="630" 
d="M78 0v708h481v-144h-325v-132h307v-144h-307v-144h343v-144h-499zM316 904l101 -144h-132l-173 144h204z" />
    <glyph glyph-name="Eacute" unicode="&#xc9;" horiz-adv-x="630" 
d="M78 0v708h481v-144h-325v-132h307v-144h-307v-144h343v-144h-499zM215 760l101 144h204l-173 -144h-132z" />
    <glyph glyph-name="Ecircumflex" unicode="&#xca;" horiz-adv-x="630" 
d="M78 0v708h481v-144h-325v-132h307v-144h-307v-144h343v-144h-499zM514 760h-138l-63 78l-62 -78h-135l119 144h163z" />
    <glyph glyph-name="Edieresis" unicode="&#xcb;" horiz-adv-x="630" 
d="M78 0v708h481v-144h-325v-132h307v-144h-307v-144h343v-144h-499zM210 754q-35 0 -59 26t-24 60q0 33 24 57.5t57 24.5q36 0 61.5 -23.5t25.5 -58.5q0 -36 -24.5 -61t-60.5 -25zM418 754q-35 0 -59 26t-24 60q0 33 24 57.5t57 24.5q36 0 61.5 -23.5t25.5 -58.5
q0 -36 -24.5 -61t-60.5 -25z" />
    <glyph glyph-name="Igrave" unicode="&#xcc;" horiz-adv-x="296" 
d="M70 0v708h156v-708h-156zM149 904l101 -144h-132l-173 144h204z" />
    <glyph glyph-name="Iacute" unicode="&#xcd;" horiz-adv-x="296" 
d="M70 0v708h156v-708h-156zM48 760l101 144h204l-173 -144h-132z" />
    <glyph glyph-name="Icircumflex" unicode="&#xce;" horiz-adv-x="296" 
d="M70 0v708h156v-708h-156zM347 760h-138l-63 78l-62 -78h-135l119 144h163z" />
    <glyph glyph-name="Idieresis" unicode="&#xcf;" horiz-adv-x="296" 
d="M70 0v708h156v-708h-156zM43 754q-35 0 -59 26t-24 60q0 33 24 57.5t57 24.5q36 0 61.5 -23.5t25.5 -58.5q0 -36 -24.5 -61t-60.5 -25zM251 754q-35 0 -59 26t-24 60q0 33 24 57.5t57 24.5q36 0 61.5 -23.5t25.5 -58.5q0 -36 -24.5 -61t-60.5 -25z" />
    <glyph glyph-name="Eth" unicode="&#xd0;" horiz-adv-x="759" 
d="M228 564v-144h198v-102h-198v-174h81q254 0 254 216q0 99 -69 151.5t-174 52.5h-92zM72 0v318h-60v102h60v288h234q89 0 162.5 -19.5t132 -60.5t91.5 -111.5t33 -164.5q0 -110 -56 -191.5t-145 -121t-197 -39.5h-255z" />
    <glyph glyph-name="Ntilde" unicode="&#xd1;" horiz-adv-x="815" 
d="M72 0v708h212l301 -492h2v492h156v-708h-204l-309 504h-2v-504h-156zM291 766h-79q9 57 42 97.5t85 40.5q36 0 87 -21q41 -15 56 -15q28 0 44 36h78q-24 -138 -130 -138q-34 0 -78 21t-63 21q-27 0 -42 -42z" />
    <glyph glyph-name="Ograve" unicode="&#xd2;" horiz-adv-x="832" 
d="M34 354q0 168 107 270t275 102t275 -102t107 -270t-107 -270t-275 -102t-275 102t-107 270zM196 354q0 -100 60.5 -164t159.5 -64t159.5 64t60.5 164t-60.5 164t-159.5 64t-159.5 -64t-60.5 -164zM417 904l101 -144h-132l-173 144h204z" />
    <glyph glyph-name="Oacute" unicode="&#xd3;" horiz-adv-x="832" 
d="M34 354q0 168 107 270t275 102t275 -102t107 -270t-107 -270t-275 -102t-275 102t-107 270zM196 354q0 -100 60.5 -164t159.5 -64t159.5 64t60.5 164t-60.5 164t-159.5 64t-159.5 -64t-60.5 -164zM316 760l101 144h204l-173 -144h-132z" />
    <glyph glyph-name="Ocircumflex" unicode="&#xd4;" horiz-adv-x="832" 
d="M34 354q0 168 107 270t275 102t275 -102t107 -270t-107 -270t-275 -102t-275 102t-107 270zM196 354q0 -100 60.5 -164t159.5 -64t159.5 64t60.5 164t-60.5 164t-159.5 64t-159.5 -64t-60.5 -164zM615 760h-138l-63 78l-62 -78h-135l119 144h163z" />
    <glyph glyph-name="Otilde" unicode="&#xd5;" horiz-adv-x="832" 
d="M34 354q0 168 107 270t275 102t275 -102t107 -270t-107 -270t-275 -102t-275 102t-107 270zM196 354q0 -100 60.5 -164t159.5 -64t159.5 64t60.5 164t-60.5 164t-159.5 64t-159.5 -64t-60.5 -164zM299 766h-79q9 57 42 97.5t85 40.5q36 0 87 -21q41 -15 56 -15
q28 0 44 36h78q-24 -138 -130 -138q-34 0 -78 21t-63 21q-27 0 -42 -42z" />
    <glyph glyph-name="Odieresis" unicode="&#xd6;" horiz-adv-x="832" 
d="M34 354q0 168 107 270t275 102t275 -102t107 -270t-107 -270t-275 -102t-275 102t-107 270zM196 354q0 -100 60.5 -164t159.5 -64t159.5 64t60.5 164t-60.5 164t-159.5 64t-159.5 -64t-60.5 -164zM311 754q-35 0 -59 26t-24 60q0 33 24 57.5t57 24.5q36 0 61.5 -23.5
t25.5 -58.5q0 -36 -24.5 -61t-60.5 -25zM519 754q-35 0 -59 26t-24 60q0 33 24 57.5t57 24.5q36 0 61.5 -23.5t25.5 -58.5q0 -36 -24.5 -61t-60.5 -25z" />
    <glyph glyph-name="multiply" unicode="&#xd7;" horiz-adv-x="666" 
d="M64 475l93 95l177 -175l172 174l89 -86l-173 -180l180 -173l-92 -93l-176 176l-177 -177l-89 86l174 181z" />
    <glyph glyph-name="Oslash" unicode="&#xd8;" horiz-adv-x="832" 
d="M34 -3l93 102q-93 101 -93 255q0 168 107 270t275 102q131 0 227 -64l92 100l55 -49l-90 -98q98 -101 98 -261q0 -168 -107 -270t-275 -102q-137 0 -233 68l-93 -101zM235 217l304 331q-53 34 -123 34q-99 0 -159.5 -64t-60.5 -164q0 -78 39 -137zM592 497l-305 -333
q54 -38 129 -38q99 0 159.5 64t60.5 164q0 85 -44 143z" />
    <glyph glyph-name="Ugrave" unicode="&#xd9;" horiz-adv-x="741" 
d="M669 708v-435q0 -130 -77.5 -210.5t-220.5 -80.5t-221 80.5t-78 210.5v435h156v-429q0 -66 40.5 -109.5t102.5 -43.5q61 0 101.5 44t40.5 109v429h156zM372 904l101 -144h-132l-173 144h204z" />
    <glyph glyph-name="Uacute" unicode="&#xda;" horiz-adv-x="741" 
d="M669 708v-435q0 -130 -77.5 -210.5t-220.5 -80.5t-221 80.5t-78 210.5v435h156v-429q0 -66 40.5 -109.5t102.5 -43.5q61 0 101.5 44t40.5 109v429h156zM271 760l101 144h204l-173 -144h-132z" />
    <glyph glyph-name="Ucircumflex" unicode="&#xdb;" horiz-adv-x="741" 
d="M669 708v-435q0 -130 -77.5 -210.5t-220.5 -80.5t-221 80.5t-78 210.5v435h156v-429q0 -66 40.5 -109.5t102.5 -43.5q61 0 101.5 44t40.5 109v429h156zM570 760h-138l-63 78l-62 -78h-135l119 144h163z" />
    <glyph glyph-name="Udieresis" unicode="&#xdc;" horiz-adv-x="741" 
d="M669 708v-435q0 -130 -77.5 -210.5t-220.5 -80.5t-221 80.5t-78 210.5v435h156v-429q0 -66 40.5 -109.5t102.5 -43.5q61 0 101.5 44t40.5 109v429h156zM266 754q-35 0 -59 26t-24 60q0 33 24 57.5t57 24.5q36 0 61.5 -23.5t25.5 -58.5q0 -36 -24.5 -61t-60.5 -25z
M474 754q-35 0 -59 26t-24 60q0 33 24 57.5t57 24.5q36 0 61.5 -23.5t25.5 -58.5q0 -36 -24.5 -61t-60.5 -25z" />
    <glyph glyph-name="Yacute" unicode="&#xdd;" horiz-adv-x="648" 
d="M246 0v302l-266 406h194l150 -265l159 265h185l-266 -406v-302h-156zM224 786l101 144h204l-173 -144h-132z" />
    <glyph glyph-name="Thorn" unicode="&#xde;" horiz-adv-x="630" 
d="M72 0v708h156v-126h107q269 0 269 -215q0 -217 -262 -217h-114v-150h-156zM228 450v-168h104q110 0 110 85q0 83 -134 83h-80z" />
    <glyph glyph-name="germandbls" unicode="&#xdf;" horiz-adv-x="630" 
d="M53 0v513q0 255 256 255q94 0 162.5 -47t68.5 -136q0 -118 -102 -160v-2q76 -15 116 -70.5t40 -135.5q0 -105 -66.5 -167t-171.5 -62q-46 0 -93 12v122q26 -8 49 -8q59 0 98.5 30t39.5 87q0 61 -37.5 91.5t-99.5 30.5h-20v126h12q39 0 65 20.5t26 58.5q0 36 -27 57
t-64 21q-46 0 -74 -26.5t-28 -71.5v-538h-150z" />
    <glyph glyph-name="agrave" unicode="&#xe0;" horiz-adv-x="537" 
d="M358 0v61h-2q-46 -73 -154 -73q-72 0 -122.5 40t-50.5 110q0 35 12.5 62.5t30.5 45t48 30t55.5 19t63.5 10t61 4t58 0.5q0 39 -28 63t-68 24q-70 0 -122 -58l-80 82q83 78 214 78q125 0 173.5 -61t48.5 -190v-247h-138zM358 213h-37q-148 0 -148 -70q0 -25 21.5 -39
t49.5 -14q47 0 80.5 24t33.5 67v32zM270 708l101 -144h-132l-173 144h204z" />
    <glyph glyph-name="aacute" unicode="&#xe1;" horiz-adv-x="537" 
d="M358 0v61h-2q-46 -73 -154 -73q-72 0 -122.5 40t-50.5 110q0 35 12.5 62.5t30.5 45t48 30t55.5 19t63.5 10t61 4t58 0.5q0 39 -28 63t-68 24q-70 0 -122 -58l-80 82q83 78 214 78q125 0 173.5 -61t48.5 -190v-247h-138zM358 213h-37q-148 0 -148 -70q0 -25 21.5 -39
t49.5 -14q47 0 80.5 24t33.5 67v32zM169 564l101 144h204l-173 -144h-132z" />
    <glyph glyph-name="acircumflex" unicode="&#xe2;" horiz-adv-x="537" 
d="M358 0v61h-2q-46 -73 -154 -73q-72 0 -122.5 40t-50.5 110q0 35 12.5 62.5t30.5 45t48 30t55.5 19t63.5 10t61 4t58 0.5q0 39 -28 63t-68 24q-70 0 -122 -58l-80 82q83 78 214 78q125 0 173.5 -61t48.5 -190v-247h-138zM358 213h-37q-148 0 -148 -70q0 -25 21.5 -39
t49.5 -14q47 0 80.5 24t33.5 67v32zM468 564h-138l-63 78l-62 -78h-135l119 144h163z" />
    <glyph glyph-name="atilde" unicode="&#xe3;" horiz-adv-x="537" 
d="M358 0v61h-2q-46 -73 -154 -73q-72 0 -122.5 40t-50.5 110q0 35 12.5 62.5t30.5 45t48 30t55.5 19t63.5 10t61 4t58 0.5q0 39 -28 63t-68 24q-70 0 -122 -58l-80 82q83 78 214 78q125 0 173.5 -61t48.5 -190v-247h-138zM358 213h-37q-148 0 -148 -70q0 -25 21.5 -39
t49.5 -14q47 0 80.5 24t33.5 67v32zM152 570h-79q9 57 42 97.5t85 40.5q36 0 87 -21q39 -15 56 -15q28 0 44 36h78q-24 -138 -130 -138q-30 0 -78 21q-44 21 -63 21q-29 0 -42 -42z" />
    <glyph glyph-name="adieresis" unicode="&#xe4;" horiz-adv-x="537" 
d="M358 0v61h-2q-46 -73 -154 -73q-72 0 -122.5 40t-50.5 110q0 35 12.5 62.5t30.5 45t48 30t55.5 19t63.5 10t61 4t58 0.5q0 39 -28 63t-68 24q-70 0 -122 -58l-80 82q83 78 214 78q125 0 173.5 -61t48.5 -190v-247h-138zM358 213h-37q-148 0 -148 -70q0 -25 21.5 -39
t49.5 -14q47 0 80.5 24t33.5 67v32zM164 558q-35 0 -59 25.5t-24 60.5q0 33 24 57.5t57 24.5q35 0 61 -23.5t26 -58.5q0 -36 -24.5 -61t-60.5 -25zM372 558q-35 0 -59 25.5t-24 60.5q0 33 24 57.5t57 24.5q35 0 61 -23.5t26 -58.5q0 -36 -24.5 -61t-60.5 -25z" />
    <glyph glyph-name="aring" unicode="&#xe5;" horiz-adv-x="537" 
d="M358 0v61h-2q-46 -73 -154 -73q-72 0 -122.5 40t-50.5 110q0 35 12.5 62.5t30.5 45t48 30t55.5 19t63.5 10t61 4t58 0.5q0 39 -28 63t-68 24q-70 0 -122 -58l-80 82q83 78 214 78q125 0 173.5 -61t48.5 -190v-247h-138zM358 213h-37q-148 0 -148 -70q0 -25 21.5 -39
t49.5 -14q47 0 80.5 24t33.5 67v32zM269 545q-45 0 -78 33t-33 78t33 78t78 33t78 -33t33 -78t-33 -78t-78 -33zM218 656q0 -21 15 -36t36 -15t36 15t15 36t-15 36t-36 15t-36 -15t-15 -36z" />
    <glyph glyph-name="ae" unicode="&#xe6;" horiz-adv-x="852" 
d="M140 338l-80 82q83 78 214 78q98 0 158 -59q61 59 163 59q105 0 166.5 -69t61.5 -186v-47h-348q9 -43 39.5 -68.5t73.5 -25.5q64 0 107 59l105 -77q-36 -45 -91 -70.5t-114 -25.5q-139 0 -194 79q-57 -79 -199 -79q-72 0 -122.5 40t-50.5 110q0 37 14 65.5t41 45.5
t54 27.5t67 15t65 5.5t61 1h18q0 44 -23.5 71t-63.5 27q-70 0 -122 -58zM173 139q0 -49 77 -49q99 0 99 106h-18q-158 0 -158 -57zM475 298h198q1 38 -25.5 65t-66.5 27q-47 0 -75 -27t-31 -65z" />
    <glyph glyph-name="ccedilla" unicode="&#xe7;" horiz-adv-x="482" 
d="M481 433l-99 -104q-26 37 -74 37q-56 0 -88 -34t-32 -89t32 -89t88 -34q43 0 74 37l99 -104q-64 -65 -173 -65q-7 0 -9 1l-33 -49q36 0 60.5 -4.5t45 -24t20.5 -54.5q0 -49 -45 -73t-94 -24q-63 0 -125 30l25 47q45 -17 77 -17q66 0 66 32q0 16 -16 25t-34 9
q-17 0 -36 -8l-32 29l60 90q-89 19 -144.5 85t-55.5 161q0 114 77.5 184.5t192.5 70.5q109 0 173 -65z" />
    <glyph glyph-name="egrave" unicode="&#xe8;" horiz-adv-x="574" 
d="M408 161l105 -77q-36 -45 -91 -70.5t-114 -25.5q-115 0 -192.5 70.5t-77.5 184.5t77.5 184.5t192.5 70.5q105 0 166.5 -69t61.5 -186v-47h-348q9 -43 39.5 -68.5t73.5 -25.5q64 0 107 59zM188 298h198q1 38 -25.5 65t-66.5 27q-47 0 -75 -27t-31 -65zM288 708l101 -144
h-132l-173 144h204z" />
    <glyph glyph-name="eacute" unicode="&#xe9;" horiz-adv-x="574" 
d="M408 161l105 -77q-36 -45 -91 -70.5t-114 -25.5q-115 0 -192.5 70.5t-77.5 184.5t77.5 184.5t192.5 70.5q105 0 166.5 -69t61.5 -186v-47h-348q9 -43 39.5 -68.5t73.5 -25.5q64 0 107 59zM188 298h198q1 38 -25.5 65t-66.5 27q-47 0 -75 -27t-31 -65zM187 564l101 144
h204l-173 -144h-132z" />
    <glyph glyph-name="ecircumflex" unicode="&#xea;" horiz-adv-x="574" 
d="M408 161l105 -77q-36 -45 -91 -70.5t-114 -25.5q-115 0 -192.5 70.5t-77.5 184.5t77.5 184.5t192.5 70.5q105 0 166.5 -69t61.5 -186v-47h-348q9 -43 39.5 -68.5t73.5 -25.5q64 0 107 59zM188 298h198q1 38 -25.5 65t-66.5 27q-47 0 -75 -27t-31 -65zM486 564h-138
l-63 78l-62 -78h-135l119 144h163z" />
    <glyph glyph-name="edieresis" unicode="&#xeb;" horiz-adv-x="574" 
d="M408 161l105 -77q-36 -45 -91 -70.5t-114 -25.5q-115 0 -192.5 70.5t-77.5 184.5t77.5 184.5t192.5 70.5q105 0 166.5 -69t61.5 -186v-47h-348q9 -43 39.5 -68.5t73.5 -25.5q64 0 107 59zM188 298h198q1 38 -25.5 65t-66.5 27q-47 0 -75 -27t-31 -65zM182 558
q-35 0 -59 25.5t-24 60.5q0 33 24 57.5t57 24.5q35 0 61 -23.5t26 -58.5q0 -36 -24.5 -61t-60.5 -25zM390 558q-35 0 -59 25.5t-24 60.5q0 33 24 57.5t57 24.5q35 0 61 -23.5t26 -58.5q0 -36 -24.5 -61t-60.5 -25z" />
    <glyph glyph-name="igrave" unicode="&#xec;" 
d="M55 0v486h150v-486h-150zM131 708l101 -144h-132l-173 144h204z" />
    <glyph glyph-name="iacute" unicode="&#xed;" 
d="M55 0v486h150v-486h-150zM30 564l101 144h204l-173 -144h-132z" />
    <glyph glyph-name="icircumflex" unicode="&#xee;" 
d="M55 0v486h150v-486h-150zM329 564h-138l-63 78l-62 -78h-135l119 144h163z" />
    <glyph glyph-name="idieresis" unicode="&#xef;" 
d="M55 0v486h150v-486h-150zM25 558q-35 0 -59 25.5t-24 60.5q0 33 24 57.5t57 24.5q35 0 61 -23.5t26 -58.5q0 -36 -24.5 -61t-60.5 -25zM233 558q-35 0 -59 25.5t-24 60.5q0 33 24 57.5t57 24.5q35 0 61 -23.5t26 -58.5q0 -36 -24.5 -61t-60.5 -25z" />
    <glyph glyph-name="eth" unicode="&#xf0;" horiz-adv-x="610" 
d="M449 777l77 -67l-123 -51q34 -36 55.5 -63t52.5 -76t47.5 -109t16.5 -127q0 -138 -70.5 -217.5t-199.5 -78.5q-115 0 -192.5 70.5t-77.5 184.5q0 112 75.5 183.5t172.5 71.5q66 0 98 -26l2 2q-58 82 -111 129l-106 -45l-72 68l108 46q-29 31 -69 59l122 70q41 -32 80 -72
zM185 243q0 -55 32 -89t88 -34t88 34t32 89t-32 89t-88 34t-88 -34t-32 -89z" />
    <glyph glyph-name="ntilde" unicode="&#xf1;" horiz-adv-x="574" 
d="M53 0v486h144v-66h2q17 32 54 55t88 23q105 0 142.5 -59.5t37.5 -170.5v-268h-150v238q0 22 -0.5 35.5t-4.5 33.5t-12 31t-23.5 19.5t-37.5 8.5q-53 0 -71.5 -33.5t-18.5 -90.5v-242h-150zM170 570h-79q9 57 42 97.5t85 40.5q36 0 87 -21q39 -15 56 -15q28 0 44 36h78
q-24 -138 -130 -138q-30 0 -78 21q-44 21 -63 21q-29 0 -42 -42z" />
    <glyph glyph-name="ograve" unicode="&#xf2;" horiz-adv-x="610" 
d="M35 243q0 114 77.5 184.5t192.5 70.5t192.5 -70.5t77.5 -184.5t-77.5 -184.5t-192.5 -70.5t-192.5 70.5t-77.5 184.5zM185 243q0 -55 32 -89t88 -34t88 34t32 89t-32 89t-88 34t-88 -34t-32 -89zM306 708l101 -144h-132l-173 144h204z" />
    <glyph glyph-name="oacute" unicode="&#xf3;" horiz-adv-x="610" 
d="M35 243q0 114 77.5 184.5t192.5 70.5t192.5 -70.5t77.5 -184.5t-77.5 -184.5t-192.5 -70.5t-192.5 70.5t-77.5 184.5zM185 243q0 -55 32 -89t88 -34t88 34t32 89t-32 89t-88 34t-88 -34t-32 -89zM205 564l101 144h204l-173 -144h-132z" />
    <glyph glyph-name="ocircumflex" unicode="&#xf4;" horiz-adv-x="610" 
d="M35 243q0 114 77.5 184.5t192.5 70.5t192.5 -70.5t77.5 -184.5t-77.5 -184.5t-192.5 -70.5t-192.5 70.5t-77.5 184.5zM185 243q0 -55 32 -89t88 -34t88 34t32 89t-32 89t-88 34t-88 -34t-32 -89zM504 564h-138l-63 78l-62 -78h-135l119 144h163z" />
    <glyph glyph-name="otilde" unicode="&#xf5;" horiz-adv-x="610" 
d="M35 243q0 114 77.5 184.5t192.5 70.5t192.5 -70.5t77.5 -184.5t-77.5 -184.5t-192.5 -70.5t-192.5 70.5t-77.5 184.5zM185 243q0 -55 32 -89t88 -34t88 34t32 89t-32 89t-88 34t-88 -34t-32 -89zM188 570h-79q9 57 42 97.5t85 40.5q36 0 87 -21q39 -15 56 -15q28 0 44 36
h78q-24 -138 -130 -138q-30 0 -78 21q-44 21 -63 21q-29 0 -42 -42z" />
    <glyph glyph-name="odieresis" unicode="&#xf6;" horiz-adv-x="610" 
d="M35 243q0 114 77.5 184.5t192.5 70.5t192.5 -70.5t77.5 -184.5t-77.5 -184.5t-192.5 -70.5t-192.5 70.5t-77.5 184.5zM185 243q0 -55 32 -89t88 -34t88 34t32 89t-32 89t-88 34t-88 -34t-32 -89zM200 558q-35 0 -59 25.5t-24 60.5q0 33 24 57.5t57 24.5q35 0 61 -23.5
t26 -58.5q0 -36 -24.5 -61t-60.5 -25zM408 558q-35 0 -59 25.5t-24 60.5q0 33 24 57.5t57 24.5q35 0 61 -23.5t26 -58.5q0 -36 -24.5 -61t-60.5 -25z" />
    <glyph glyph-name="divide" unicode="&#xf7;" horiz-adv-x="666" 
d="M59 240v126h548v-126h-548zM247 114q0 35 25.5 60.5t60.5 25.5t60.5 -25.5t25.5 -60.5t-25.5 -60.5t-60.5 -25.5t-60.5 25.5t-25.5 60.5zM247 492q0 35 25.5 60.5t60.5 25.5t60.5 -25.5t25.5 -60.5t-25.5 -60.5t-60.5 -25.5t-60.5 25.5t-25.5 60.5z" />
    <glyph glyph-name="oslash" unicode="&#xf8;" horiz-adv-x="610" 
d="M26 6l70 70q-61 67 -61 167q0 114 77.5 184.5t192.5 70.5q94 0 165 -49l67 67l47 -45l-66 -66q57 -67 57 -162q0 -114 -77.5 -184.5t-192.5 -70.5q-90 0 -159 46l-73 -73zM200 180l170 170q-27 16 -65 16q-56 0 -88 -34t-32 -89q0 -36 15 -63zM413 300l-167 -166
q26 -14 59 -14q56 0 88 34t32 89q0 31 -12 57z" />
    <glyph glyph-name="ugrave" unicode="&#xf9;" horiz-adv-x="574" 
d="M521 486v-486h-144v66h-2q-17 -32 -54 -55t-88 -23q-105 0 -142.5 59.5t-37.5 170.5v268h150v-238q0 -22 0.5 -35.5t4.5 -33.5t12 -31t23.5 -19.5t37.5 -8.5q53 0 71.5 33.5t18.5 90.5v242h150zM288 708l101 -144h-132l-173 144h204z" />
    <glyph glyph-name="uacute" unicode="&#xfa;" horiz-adv-x="574" 
d="M521 486v-486h-144v66h-2q-17 -32 -54 -55t-88 -23q-105 0 -142.5 59.5t-37.5 170.5v268h150v-238q0 -22 0.5 -35.5t4.5 -33.5t12 -31t23.5 -19.5t37.5 -8.5q53 0 71.5 33.5t18.5 90.5v242h150zM187 564l101 144h204l-173 -144h-132z" />
    <glyph glyph-name="ucircumflex" unicode="&#xfb;" horiz-adv-x="574" 
d="M521 486v-486h-144v66h-2q-17 -32 -54 -55t-88 -23q-105 0 -142.5 59.5t-37.5 170.5v268h150v-238q0 -22 0.5 -35.5t4.5 -33.5t12 -31t23.5 -19.5t37.5 -8.5q53 0 71.5 33.5t18.5 90.5v242h150zM486 564h-138l-63 78l-62 -78h-135l119 144h163z" />
    <glyph glyph-name="udieresis" unicode="&#xfc;" horiz-adv-x="574" 
d="M521 486v-486h-144v66h-2q-17 -32 -54 -55t-88 -23q-105 0 -142.5 59.5t-37.5 170.5v268h150v-238q0 -22 0.5 -35.5t4.5 -33.5t12 -31t23.5 -19.5t37.5 -8.5q53 0 71.5 33.5t18.5 90.5v242h150zM182 558q-35 0 -59 25.5t-24 60.5q0 33 24 57.5t57 24.5q35 0 61 -23.5
t26 -58.5q0 -36 -24.5 -61t-60.5 -25zM390 558q-35 0 -59 25.5t-24 60.5q0 33 24 57.5t57 24.5q35 0 61 -23.5t26 -58.5q0 -36 -24.5 -61t-60.5 -25z" />
    <glyph glyph-name="yacute" unicode="&#xfd;" horiz-adv-x="556" 
d="M553 486l-220 -565q-15 -39 -23.5 -57.5t-25 -43t-35 -34.5t-49.5 -18t-73 -8q-58 0 -112 18l20 123q35 -15 70 -15q33 0 52.5 11t27 24.5t20.5 46.5l11 28l-213 490h162l125 -321h2l107 321h154zM178 564l101 144h204l-173 -144h-132z" />
    <glyph glyph-name="thorn" unicode="&#xfe;" horiz-adv-x="630" 
d="M67 -228v984h150v-322h2q17 29 56 46.5t81 17.5q107 0 173 -70t66 -181q0 -106 -61 -182.5t-161 -76.5q-108 0 -154 64h-2v-280h-150zM205 243q0 -55 32 -89t88 -34t88 34t32 89t-32 89t-88 34t-88 -34t-32 -89z" />
    <glyph glyph-name="ydieresis" unicode="&#xff;" horiz-adv-x="556" 
d="M553 486l-220 -565q-15 -39 -23.5 -57.5t-25 -43t-35 -34.5t-49.5 -18t-73 -8q-58 0 -112 18l20 123q35 -15 70 -15q33 0 52.5 11t27 24.5t20.5 46.5l11 28l-213 490h162l125 -321h2l107 321h154zM173 558q-35 0 -59 25.5t-24 60.5q0 33 24 57.5t57 24.5q35 0 61 -23.5
t26 -58.5q0 -36 -24.5 -61t-60.5 -25zM381 558q-35 0 -59 25.5t-24 60.5q0 33 24 57.5t57 24.5q35 0 61 -23.5t26 -58.5q0 -36 -24.5 -61t-60.5 -25z" />
    <glyph glyph-name="Amacron" unicode="&#x100;" horiz-adv-x="741" 
d="M-1 0l306 708h129l308 -708h-176l-61 150h-275l-59 -150h-172zM452 282l-87 220l-86 -220h173zM535 883v-96h-340v96h340z" />
    <glyph glyph-name="amacron" unicode="&#x101;" horiz-adv-x="537" 
d="M358 0v61h-2q-46 -73 -154 -73q-72 0 -122.5 40t-50.5 110q0 35 12.5 62.5t30.5 45t48 30t55.5 19t63.5 10t61 4t58 0.5q0 39 -28 63t-68 24q-70 0 -122 -58l-80 82q83 78 214 78q125 0 173.5 -61t48.5 -190v-247h-138zM358 213h-37q-148 0 -148 -70q0 -25 21.5 -39
t49.5 -14q47 0 80.5 24t33.5 67v32zM455 687v-96h-340v96h340z" />
    <glyph glyph-name="Abreve" unicode="&#x102;" horiz-adv-x="741" 
d="M-1 0l306 708h129l308 -708h-176l-61 150h-275l-59 -150h-172zM452 282l-87 220l-86 -220h173zM181 904h80q10 -48 104 -48q46 0 70.5 9t34.5 39h79q-8 -73 -58 -108.5t-126 -35.5q-77 0 -128.5 35t-55.5 109z" />
    <glyph glyph-name="abreve" unicode="&#x103;" horiz-adv-x="537" 
d="M358 0v61h-2q-46 -73 -154 -73q-72 0 -122.5 40t-50.5 110q0 35 12.5 62.5t30.5 45t48 30t55.5 19t63.5 10t61 4t58 0.5q0 39 -28 63t-68 24q-70 0 -122 -58l-80 82q83 78 214 78q125 0 173.5 -61t48.5 -190v-247h-138zM358 213h-37q-148 0 -148 -70q0 -25 21.5 -39
t49.5 -14q47 0 80.5 24t33.5 67v32zM101 708h80q10 -48 104 -48q46 0 70.5 9t34.5 39h79q-8 -73 -58 -108.5t-126 -35.5q-77 0 -128.5 35t-55.5 109z" />
    <glyph glyph-name="Aogonek" unicode="&#x104;" horiz-adv-x="741" 
d="M661 -145l28 -53q-55 -42 -109 -42q-44 0 -74.5 25t-30.5 68q0 35 28 76.5t63 70.5l-61 150h-275l-59 -150h-172l306 708h129l308 -708h-107q-70 -70 -70 -122q0 -18 12.5 -32t29.5 -14q25 0 54 23zM452 282l-87 220l-86 -220h173z" />
    <glyph glyph-name="aogonek" unicode="&#x105;" horiz-adv-x="537" 
d="M358 0v61h-2q-46 -73 -154 -73q-73 0 -123 39.5t-50 110.5q0 35 12.5 62.5t30.5 45t48 30t55.5 19t63.5 10t61 4t58 0.5q0 39 -28 63t-68 24q-70 0 -122 -58l-80 82q84 78 214 78q125 0 173.5 -61t48.5 -190v-247h-68q-70 -70 -70 -122q0 -18 12 -32t30 -14q25 0 54 23
l28 -53q-55 -42 -109 -42q-44 0 -74.5 25t-30.5 68q0 64 90 147zM358 213h-37q-148 0 -148 -70q0 -25 21.5 -39t49.5 -14q47 0 80.5 24t33.5 67v32z" />
    <glyph glyph-name="Cacute" unicode="&#x106;" horiz-adv-x="685" 
d="M655 622l-120 -98q-49 58 -134 58q-89 0 -147 -64.5t-58 -163.5q0 -98 57.5 -163t142.5 -65q95 0 146 76l130 -97q-43 -61 -111.5 -92t-144.5 -31q-168 0 -275 102t-107 270t107 270t275 102q67 0 132 -25t107 -79zM292 760l101 144h204l-173 -144h-132z" />
    <glyph glyph-name="cacute" unicode="&#x107;" horiz-adv-x="482" 
d="M481 433l-99 -104q-26 37 -74 37q-56 0 -88 -34t-32 -89t32 -89t88 -34q43 0 74 37l99 -104q-64 -65 -173 -65q-115 0 -192.5 70.5t-77.5 184.5t77.5 184.5t192.5 70.5q109 0 173 -65zM195 564l101 144h204l-173 -144h-132z" />
    <glyph glyph-name="Ccircumflex" unicode="&#x108;" horiz-adv-x="685" 
d="M655 622l-120 -98q-49 58 -134 58q-89 0 -147 -64.5t-58 -163.5q0 -98 57.5 -163t142.5 -65q95 0 146 76l130 -97q-43 -61 -111.5 -92t-144.5 -31q-168 0 -275 102t-107 270t107 270t275 102q67 0 132 -25t107 -79zM599 760h-138l-63 78l-62 -78h-135l119 144h163z" />
    <glyph glyph-name="ccircumflex" unicode="&#x109;" horiz-adv-x="482" 
d="M481 433l-99 -104q-26 37 -74 37q-56 0 -88 -34t-32 -89t32 -89t88 -34q43 0 74 37l99 -104q-64 -65 -173 -65q-115 0 -192.5 70.5t-77.5 184.5t77.5 184.5t192.5 70.5q109 0 173 -65zM490 564h-138l-63 78l-62 -78h-135l119 144h163z" />
    <glyph glyph-name="Cdotaccent" unicode="&#x10a;" horiz-adv-x="685" 
d="M655 622l-120 -98q-49 58 -134 58q-89 0 -147 -64.5t-58 -163.5q0 -98 57.5 -163t142.5 -65q95 0 146 76l130 -97q-43 -61 -111.5 -92t-144.5 -31q-168 0 -275 102t-107 270t107 270t275 102q67 0 132 -25t107 -79zM399 754q-35 0 -59 26t-24 60q0 33 24 57.5t57 24.5
q36 0 61.5 -23.5t25.5 -58.5q0 -36 -24.5 -61t-60.5 -25z" />
    <glyph glyph-name="cdotaccent" unicode="&#x10b;" horiz-adv-x="482" 
d="M481 433l-99 -104q-26 37 -74 37q-56 0 -88 -34t-32 -89t32 -89t88 -34q43 0 74 37l99 -104q-64 -65 -173 -65q-115 0 -192.5 70.5t-77.5 184.5t77.5 184.5t192.5 70.5q109 0 173 -65zM290 558q-35 0 -59 26t-24 60q0 33 24 57.5t57 24.5q36 0 61.5 -23.5t25.5 -58.5
q0 -36 -24.5 -61t-60.5 -25z" />
    <glyph glyph-name="Ccaron" unicode="&#x10c;" horiz-adv-x="685" 
d="M655 622l-120 -98q-49 58 -134 58q-89 0 -147 -64.5t-58 -163.5q0 -98 57.5 -163t142.5 -65q95 0 146 76l130 -97q-43 -61 -111.5 -92t-144.5 -31q-168 0 -275 102t-107 270t107 270t275 102q67 0 132 -25t107 -79zM197 931h138l63 -78l62 78h135l-119 -144h-163z" />
    <glyph glyph-name="ccaron" unicode="&#x10d;" horiz-adv-x="482" 
d="M481 433l-99 -104q-26 37 -74 37q-56 0 -88 -34t-32 -89t32 -89t88 -34q43 0 74 37l99 -104q-64 -65 -173 -65q-115 0 -192.5 70.5t-77.5 184.5t77.5 184.5t192.5 70.5q109 0 173 -65zM88 708h138l63 -78l62 78h135l-119 -144h-163z" />
    <glyph glyph-name="Dcaron" unicode="&#x10e;" horiz-adv-x="759" 
d="M72 0v708h234q89 0 162.5 -19.5t132 -60.5t91.5 -111.5t33 -164.5q0 -110 -56 -191.5t-145 -121t-197 -39.5h-255zM228 564v-420h81q254 0 254 216q0 99 -69 151.5t-174 52.5h-92zM139 931h138l63 -78l62 78h135l-119 -144h-163z" />
    <glyph glyph-name="dcaron" unicode="&#x10f;" horiz-adv-x="630" 
d="M563 756v-756h-138v64h-2q-19 -30 -60.5 -53t-88.5 -23q-107 0 -173 70t-66 181q0 106 61 182.5t161 76.5q108 0 154 -64h2v322h150zM425 243q0 55 -32 89t-88 34t-88 -34t-32 -89t32 -89t88 -34t88 34t32 89zM613 509l44 199h134l-80 -199h-98z" />
    <glyph glyph-name="Dcroat" unicode="&#x110;" horiz-adv-x="759" 
d="M228 564v-144h198v-102h-198v-174h81q254 0 254 216q0 99 -69 151.5t-174 52.5h-92zM72 0v318h-60v102h60v288h234q89 0 162.5 -19.5t132 -60.5t91.5 -111.5t33 -164.5q0 -110 -56 -191.5t-145 -121t-197 -39.5h-255z" />
    <glyph glyph-name="dcroat" unicode="&#x111;" horiz-adv-x="630" 
d="M619 657v-96h-56v-561h-138v64h-2q-20 -30 -61 -53t-88 -23q-107 0 -173 70t-66 181q0 106 61 182.5t161 76.5q106 0 154 -64h2v127h-134v96h134v99h150v-99h56zM425 243q0 56 -32 89.5t-88 33.5t-88 -33.5t-32 -89.5t32 -89.5t88 -33.5t88 33.5t32 89.5z" />
    <glyph glyph-name="Emacron" unicode="&#x112;" horiz-adv-x="630" 
d="M78 0v708h481v-144h-325v-132h307v-144h-307v-144h343v-144h-499zM494 883v-96h-340v96h340z" />
    <glyph glyph-name="emacron" unicode="&#x113;" horiz-adv-x="574" 
d="M408 161l105 -77q-36 -45 -91 -70.5t-114 -25.5q-115 0 -192.5 70.5t-77.5 184.5t77.5 184.5t192.5 70.5q105 0 166.5 -69t61.5 -186v-47h-348q9 -43 39.5 -68.5t73.5 -25.5q64 0 107 59zM188 298h198q1 38 -25.5 65t-66.5 27q-47 0 -75 -27t-31 -65zM466 687v-96h-340
v96h340z" />
    <glyph glyph-name="Ebreve" unicode="&#x114;" horiz-adv-x="630" 
d="M78 0v708h481v-144h-325v-132h307v-144h-307v-144h343v-144h-499zM140 904h80q10 -48 104 -48q46 0 70.5 9t34.5 39h79q-8 -73 -58 -108.5t-126 -35.5q-77 0 -128.5 35t-55.5 109z" />
    <glyph glyph-name="ebreve" unicode="&#x115;" horiz-adv-x="574" 
d="M408 161l105 -77q-36 -45 -91 -70.5t-114 -25.5q-115 0 -192.5 70.5t-77.5 184.5t77.5 184.5t192.5 70.5q105 0 166.5 -69t61.5 -186v-47h-348q9 -43 39.5 -68.5t73.5 -25.5q64 0 107 59zM188 298h198q1 38 -25.5 65t-66.5 27q-47 0 -75 -27t-31 -65zM112 708h80
q10 -48 104 -48q46 0 70.5 9t34.5 39h79q-8 -73 -58 -108.5t-126 -35.5q-77 0 -128.5 35t-55.5 109z" />
    <glyph glyph-name="Edotaccent" unicode="&#x116;" horiz-adv-x="630" 
d="M78 0v708h481v-144h-325v-132h307v-144h-307v-144h343v-144h-499zM331 754q-35 0 -59 26t-24 60q0 33 24 57.5t57 24.5q36 0 61.5 -23.5t25.5 -58.5q0 -36 -24.5 -61t-60.5 -25z" />
    <glyph glyph-name="edotaccent" unicode="&#x117;" horiz-adv-x="574" 
d="M408 161l105 -77q-36 -45 -91 -70.5t-114 -25.5q-115 0 -192.5 70.5t-77.5 184.5t77.5 184.5t192.5 70.5q105 0 166.5 -69t61.5 -186v-47h-348q9 -43 39.5 -68.5t73.5 -25.5q64 0 107 59zM188 298h198q1 38 -25.5 65t-66.5 27q-47 0 -75 -27t-31 -65zM301 558
q-35 0 -59 26t-24 60q0 33 24 57.5t57 24.5q36 0 61.5 -23.5t25.5 -58.5q0 -36 -24.5 -61t-60.5 -25z" />
    <glyph glyph-name="Eogonek" unicode="&#x118;" horiz-adv-x="630" 
d="M78 0v708h481v-144h-325v-132h307v-144h-307v-144h343v-144h-64q-70 -70 -70 -122q0 -18 12.5 -32t29.5 -14q25 0 54 23l28 -53q-55 -42 -109 -42q-44 0 -74.5 25t-30.5 68q0 64 90 147h-365z" />
    <glyph glyph-name="eogonek" unicode="&#x119;" horiz-adv-x="574" 
d="M393 -145l28 -53q-55 -42 -109 -42q-44 0 -74.5 25t-30.5 68q0 59 77 136q-107 8 -176.5 77t-69.5 177q0 114 77.5 184.5t192.5 70.5q105 0 166.5 -69t61.5 -186v-47h-348q9 -43 39 -68.5t74 -25.5q65 0 107 59l105 -77q-59 -72 -153 -91q-63 -63 -63 -115
q0 -18 12.5 -32t29.5 -14q25 0 54 23zM188 298h198q1 39 -25 65.5t-67 26.5q-47 0 -75.5 -27t-30.5 -65z" />
    <glyph glyph-name="Ecaron" unicode="&#x11a;" horiz-adv-x="630" 
d="M78 0v708h481v-144h-325v-132h307v-144h-307v-144h343v-144h-499zM121 931h138l63 -78l62 78h135l-119 -144h-163z" />
    <glyph glyph-name="ecaron" unicode="&#x11b;" horiz-adv-x="574" 
d="M408 161l105 -77q-36 -45 -91 -70.5t-114 -25.5q-115 0 -192.5 70.5t-77.5 184.5t77.5 184.5t192.5 70.5q105 0 166.5 -69t61.5 -186v-47h-348q9 -43 39.5 -68.5t73.5 -25.5q64 0 107 59zM188 298h198q1 38 -25.5 65t-66.5 27q-47 0 -75 -27t-31 -65zM93 708h138l63 -78
l62 78h135l-119 -144h-163z" />
    <glyph glyph-name="Gcircumflex" unicode="&#x11c;" horiz-adv-x="778" 
d="M713 420v-370q-130 -68 -297 -68q-168 0 -275 102t-107 270t107 270t275 102q184 0 282 -91l-110 -120q-64 67 -172 67q-99 0 -159.5 -64t-60.5 -164t60.5 -164t159.5 -64q84 0 147 35v115h-127v144h277zM611 760h-138l-63 78l-62 -78h-135l119 144h163z" />
    <glyph glyph-name="gcircumflex" unicode="&#x11d;" horiz-adv-x="630" 
d="M563 486v-445q0 -138 -70.5 -209.5t-210.5 -71.5q-155 0 -244 71l83 124q74 -63 158 -63q66 0 100 32.5t34 86.5v47h-2q-24 -33 -61.5 -48.5t-75.5 -15.5q-107 0 -173 70t-66 181q0 102 61.5 177.5t160.5 75.5q59 0 102.5 -23t63.5 -53h2v64h138zM185 246q0 -48 35 -84
t85 -36t85 36t35 84t-35 84t-85 36t-85 -36t-35 -84zM510 564h-138l-63 78l-62 -78h-135l119 144h163z" />
    <glyph glyph-name="Gbreve" unicode="&#x11e;" horiz-adv-x="778" 
d="M713 420v-370q-130 -68 -297 -68q-168 0 -275 102t-107 270t107 270t275 102q184 0 282 -91l-110 -120q-64 67 -172 67q-99 0 -159.5 -64t-60.5 -164t60.5 -164t159.5 -64q84 0 147 35v115h-127v144h277zM228 904h80q10 -48 104 -48q46 0 70.5 9t34.5 39h79
q-8 -73 -58 -108.5t-126 -35.5q-77 0 -128.5 35t-55.5 109z" />
    <glyph glyph-name="gbreve" unicode="&#x11f;" horiz-adv-x="630" 
d="M563 486v-445q0 -138 -70.5 -209.5t-210.5 -71.5q-155 0 -244 71l83 124q74 -63 158 -63q66 0 100 32.5t34 86.5v47h-2q-24 -33 -61.5 -48.5t-75.5 -15.5q-107 0 -173 70t-66 181q0 102 61.5 177.5t160.5 75.5q59 0 102.5 -23t63.5 -53h2v64h138zM185 246q0 -48 35 -84
t85 -36t85 36t35 84t-35 84t-85 36t-85 -36t-35 -84zM137 708h80q10 -48 104 -48q46 0 70.5 9t34.5 39h79q-8 -73 -58 -108.5t-126 -35.5q-77 0 -128.5 35t-55.5 109z" />
    <glyph glyph-name="Gdotaccent" unicode="&#x120;" horiz-adv-x="778" 
d="M713 420v-370q-130 -68 -297 -68q-168 0 -275 102t-107 270t107 270t275 102q184 0 282 -91l-110 -120q-64 67 -172 67q-99 0 -159.5 -64t-60.5 -164t60.5 -164t159.5 -64q84 0 147 35v115h-127v144h277zM411 754q-35 0 -59 26t-24 60q0 33 24 57.5t57 24.5
q36 0 61.5 -23.5t25.5 -58.5q0 -36 -24.5 -61t-60.5 -25z" />
    <glyph glyph-name="gdotaccent" unicode="&#x121;" horiz-adv-x="630" 
d="M563 486v-445q0 -138 -70.5 -209.5t-210.5 -71.5q-155 0 -244 71l83 124q74 -63 158 -63q66 0 100 32.5t34 86.5v47h-2q-24 -33 -61.5 -48.5t-75.5 -15.5q-107 0 -173 70t-66 181q0 102 61.5 177.5t160.5 75.5q59 0 102.5 -23t63.5 -53h2v64h138zM185 246q0 -48 35 -84
t85 -36t85 36t35 84t-35 84t-85 36t-85 -36t-35 -84zM320 558q-35 0 -59 26t-24 60q0 33 24 57.5t57 24.5q36 0 61.5 -23.5t25.5 -58.5q0 -36 -24.5 -61t-60.5 -25z" />
    <glyph glyph-name="Gcommaaccent" unicode="&#x122;" horiz-adv-x="778" 
d="M713 420v-370q-130 -68 -297 -68q-168 0 -275 102t-107 270t107 270t275 102q184 0 282 -91l-110 -120q-64 67 -172 67q-99 0 -159.5 -64t-60.5 -164t60.5 -164t159.5 -64q84 0 147 35v115h-127v144h277zM301 -260l64 199h144l-90 -199h-118z" />
    <glyph glyph-name="gcommaaccent" unicode="&#x123;" horiz-adv-x="630" 
d="M563 486v-445q0 -138 -70.5 -209.5t-210.5 -71.5q-155 0 -244 71l83 124q74 -63 158 -63q66 0 100 32.5t34 86.5v47h-2q-24 -33 -61.5 -48.5t-75.5 -15.5q-107 0 -173 70t-66 181q0 102 61.5 177.5t160.5 75.5q59 0 102.5 -23t63.5 -53h2v64h138zM185 246q0 -48 35 -84
t85 -36t85 36t35 84t-35 84t-85 36t-85 -36t-35 -84zM436 783l-64 -199h-144l90 199h118z" />
    <glyph glyph-name="Hcircumflex" unicode="&#x124;" horiz-adv-x="759" 
d="M72 0v708h156v-264h303v264h156v-708h-156v306h-303v-306h-156zM578 760h-138l-63 78l-62 -78h-135l119 144h163z" />
    <glyph glyph-name="hcircumflex" unicode="&#x125;" horiz-adv-x="574" 
d="M53 756h150v-336h2q12 31 48.5 54.5t87.5 23.5q105 0 142.5 -59.5t37.5 -170.5v-268h-150v238q0 22 -0.5 35.5t-4.5 33.5t-12 31t-23.5 19.5t-37.5 8.5q-53 0 -71.5 -33.5t-18.5 -90.5v-242h-150v756zM471 800h-138l-63 78l-62 -78h-135l119 144h163z" />
    <glyph glyph-name="Hbar" unicode="&#x126;" horiz-adv-x="759" 
d="M72 0v708h156v-88h303v88h156v-708h-156v306h-303v-306h-156zM228 444h303v80h-303v-80z" />
    <glyph glyph-name="hbar" unicode="&#x127;" horiz-adv-x="574" 
d="M337 657v-96h-134v-141h2q11 31 48 54.5t88 23.5q55 0 91.5 -17t55.5 -50t26 -71t7 -92v-268h-150v238q0 28 -2 45t-8.5 39t-23.5 33t-44 11q-53 0 -71.5 -33.5t-18.5 -90.5v-242h-150v561h-56v96h56v99h150v-99h134z" />
    <glyph glyph-name="Itilde" unicode="&#x128;" horiz-adv-x="296" 
d="M70 0v708h156v-708h-156zM32 766h-79q9 57 42 97.5t85 40.5q36 0 87 -21q41 -15 56 -15q28 0 44 36h78q-24 -138 -130 -138q-34 0 -78 21t-63 21q-27 0 -42 -42z" />
    <glyph glyph-name="itilde" unicode="&#x129;" 
d="M55 0v486h150v-486h-150zM15 570h-79q9 57 42 97.5t85 40.5q36 0 87 -21q39 -15 56 -15q28 0 44 36h78q-24 -138 -130 -138q-30 0 -78 21q-44 21 -63 21q-29 0 -42 -42z" />
    <glyph glyph-name="Imacron" unicode="&#x12a;" horiz-adv-x="296" 
d="M70 0v708h156v-708h-156zM317 883v-96h-340v96h340z" />
    <glyph glyph-name="imacron" unicode="&#x12b;" 
d="M55 0v486h150v-486h-150zM302 687v-96h-340v96h340z" />
    <glyph glyph-name="Iogonek" unicode="&#x12e;" horiz-adv-x="296" 
d="M70 0v708h156v-708h-86q-70 -70 -70 -122q0 -18 12 -32t30 -14q25 0 54 23l28 -53q-55 -42 -109 -42q-44 0 -74.5 25t-30.5 68q0 64 90 147z" />
    <glyph glyph-name="iogonek" unicode="&#x12f;" 
d="M55 0v486h150v-486h-51q-70 -70 -70 -122q0 -18 12 -32t30 -14q25 0 54 23l28 -53q-55 -42 -109 -42q-44 0 -74.5 25t-30.5 68q0 64 90 147h-29zM43 639q0 36 25.5 61.5t61.5 25.5t61.5 -25.5t25.5 -61.5t-25.5 -61.5t-61.5 -25.5t-61.5 25.5t-25.5 61.5z" />
    <glyph glyph-name="Idotaccent" unicode="&#x130;" horiz-adv-x="296" 
d="M70 0v708h156v-708h-156zM153 754q-35 0 -59 26t-24 60q0 33 24 57.5t57 24.5q36 0 61.5 -23.5t25.5 -58.5q0 -36 -24.5 -61t-60.5 -25z" />
    <glyph glyph-name="dotlessi" unicode="&#x131;" 
d="M55 0v486h150v-486h-150z" />
    <glyph glyph-name="Jcircumflex" unicode="&#x134;" horiz-adv-x="500" 
d="M438 708v-471q0 -55 -9 -96t-31.5 -79.5t-69.5 -59t-116 -20.5q-87 0 -143.5 41t-73.5 124l143 35q3 -25 23.5 -43.5t46.5 -18.5q21 0 35.5 9.5t22 21.5t11.5 33.5t4.5 34.5t0.5 35v454h156zM560 760h-138l-63 78l-62 -78h-135l119 144h163z" />
    <glyph glyph-name="jcircumflex" unicode="&#x135;" 
d="M205 486v-522q0 -99 -41.5 -151.5t-138.5 -52.5q-44 0 -70 8l8 133q18 -9 39 -9q18 0 30 9t16.5 27t5.5 30.5t1 31.5v496h150zM329 564h-138l-63 78l-62 -78h-135l119 144h163z" />
    <glyph glyph-name="Kcommaaccent" unicode="&#x136;" horiz-adv-x="722" 
d="M78 0v708h156v-294l275 294h204l-315 -329l342 -379h-218l-288 336v-336h-156zM232 -260l64 199h144l-90 -199h-118z" />
    <glyph glyph-name="kcommaaccent" unicode="&#x137;" horiz-adv-x="556" 
d="M53 0v756h150v-462l166 192h184l-193 -219l198 -267h-189l-164 246h-2v-246h-150zM142 -260l64 199h144l-90 -199h-118z" />
    <glyph glyph-name="Lacute" unicode="&#x139;" horiz-adv-x="537" 
d="M78 0v708h156v-564h289v-144h-445zM56 760l101 144h204l-173 -144h-132z" />
    <glyph glyph-name="lacute" unicode="&#x13a;" 
d="M55 0v756h150v-756h-150zM45 800l101 144h204l-173 -144h-132z" />
    <glyph glyph-name="Lcommaaccent" unicode="&#x13b;" horiz-adv-x="537" 
d="M78 0v708h156v-564h289v-144h-445zM168 -260l64 199h144l-90 -199h-118z" />
    <glyph glyph-name="lcommaaccent" unicode="&#x13c;" 
d="M55 0v756h150v-756h-150zM13 -260l64 199h144l-90 -199h-118z" />
    <glyph glyph-name="Lcaron" unicode="&#x13d;" horiz-adv-x="537" 
d="M78 0v708h156v-564h289v-144h-445zM312 509l44 199h134l-80 -199h-98z" />
    <glyph glyph-name="lcaron" unicode="&#x13e;" 
d="M55 0v756h150v-756h-150zM257 509l44 199h134l-80 -199h-98z" />
    <glyph glyph-name="Ldot" unicode="&#x13f;" horiz-adv-x="537" 
d="M78 0v708h156v-564h289v-144h-445zM408 317q-35 0 -59 26t-24 60q0 33 24 57.5t57 24.5q36 0 61.5 -23.5t25.5 -58.5q0 -36 -24.5 -61t-60.5 -25z" />
    <glyph glyph-name="ldot" unicode="&#x140;" horiz-adv-x="400" 
d="M55 0v756h150v-756h-150zM326 323q-35 0 -59 26t-24 60q0 33 24 57.5t57 24.5q36 0 61.5 -23.5t25.5 -58.5q0 -36 -24.5 -61t-60.5 -25z" />
    <glyph glyph-name="Lslash" unicode="&#x141;" horiz-adv-x="537" 
d="M78 0v160l-60 -52v132l60 52v416h156v-281l210 185v-130l-210 -184v-154h289v-144h-445z" />
    <glyph glyph-name="lslash" unicode="&#x142;" 
d="M55 0v248l-60 -61v129l60 61v379h150v-229l60 61v-129l-60 -61v-398h-150z" />
    <glyph glyph-name="Nacute" unicode="&#x143;" horiz-adv-x="815" 
d="M72 0v708h212l301 -492h2v492h156v-708h-204l-309 504h-2v-504h-156zM323 760l101 144h204l-173 -144h-132z" />
    <glyph glyph-name="nacute" unicode="&#x144;" horiz-adv-x="574" 
d="M53 0v486h144v-66h2q17 32 54 55t88 23q105 0 142.5 -59.5t37.5 -170.5v-268h-150v238q0 22 -0.5 35.5t-4.5 33.5t-12 31t-23.5 19.5t-37.5 8.5q-53 0 -71.5 -33.5t-18.5 -90.5v-242h-150zM161 564l101 144h204l-173 -144h-132z" />
    <glyph glyph-name="Ncommaaccent" unicode="&#x145;" horiz-adv-x="815" 
d="M72 0v708h212l301 -492h2v492h156v-708h-204l-309 504h-2v-504h-156zM273 -260l64 199h144l-90 -199h-118z" />
    <glyph glyph-name="ncommaaccent" unicode="&#x146;" horiz-adv-x="574" 
d="M53 0v486h144v-66h2q17 32 54 55t88 23q105 0 142.5 -59.5t37.5 -170.5v-268h-150v238q0 22 -0.5 35.5t-4.5 33.5t-12 31t-23.5 19.5t-37.5 8.5q-53 0 -71.5 -33.5t-18.5 -90.5v-242h-150zM164 -260l64 199h144l-90 -199h-118z" />
    <glyph glyph-name="Ncaron" unicode="&#x147;" horiz-adv-x="815" 
d="M72 0v708h212l301 -492h2v492h156v-708h-204l-309 504h-2v-504h-156zM241 931h138l63 -78l62 78h135l-119 -144h-163z" />
    <glyph glyph-name="ncaron" unicode="&#x148;" horiz-adv-x="574" 
d="M53 0v486h144v-66h2q17 32 54 55t88 23q105 0 142.5 -59.5t37.5 -170.5v-268h-150v238q0 22 -0.5 35.5t-4.5 33.5t-12 31t-23.5 19.5t-37.5 8.5q-53 0 -71.5 -33.5t-18.5 -90.5v-242h-150zM84 708h138l63 -78l62 78h135l-119 -144h-163z" />
    <glyph glyph-name="Omacron" unicode="&#x14c;" horiz-adv-x="832" 
d="M34 354q0 168 107 270t275 102t275 -102t107 -270t-107 -270t-275 -102t-275 102t-107 270zM196 354q0 -100 60.5 -164t159.5 -64t159.5 64t60.5 164t-60.5 164t-159.5 64t-159.5 -64t-60.5 -164zM585 883v-96h-340v96h340z" />
    <glyph glyph-name="omacron" unicode="&#x14d;" horiz-adv-x="610" 
d="M35 243q0 114 77.5 184.5t192.5 70.5t192.5 -70.5t77.5 -184.5t-77.5 -184.5t-192.5 -70.5t-192.5 70.5t-77.5 184.5zM185 243q0 -55 32 -89t88 -34t88 34t32 89t-32 89t-88 34t-88 -34t-32 -89zM475 687v-96h-340v96h340z" />
    <glyph glyph-name="Obreve" unicode="&#x14e;" horiz-adv-x="832" 
d="M34 354q0 168 107 270t275 102t275 -102t107 -270t-107 -270t-275 -102t-275 102t-107 270zM196 354q0 -100 60.5 -164t159.5 -64t159.5 64t60.5 164t-60.5 164t-159.5 64t-159.5 -64t-60.5 -164zM231 904h80q10 -48 104 -48q46 0 70.5 9t34.5 39h79q-8 -73 -58 -108.5
t-126 -35.5q-77 0 -128.5 35t-55.5 109z" />
    <glyph glyph-name="obreve" unicode="&#x14f;" horiz-adv-x="610" 
d="M35 243q0 114 77.5 184.5t192.5 70.5t192.5 -70.5t77.5 -184.5t-77.5 -184.5t-192.5 -70.5t-192.5 70.5t-77.5 184.5zM185 243q0 -55 32 -89t88 -34t88 34t32 89t-32 89t-88 34t-88 -34t-32 -89zM121 708h80q10 -48 104 -48q46 0 70.5 9t34.5 39h79q-8 -73 -58 -108.5
t-126 -35.5q-77 0 -128.5 35t-55.5 109z" />
    <glyph glyph-name="Ohungarumlaut" unicode="&#x150;" horiz-adv-x="832" 
d="M34 354q0 168 107 270t275 102t275 -102t107 -270t-107 -270t-275 -102t-275 102t-107 270zM196 354q0 -100 60.5 -164t159.5 -64t159.5 64t60.5 164t-60.5 164t-159.5 64t-159.5 -64t-60.5 -164zM215 760l101 144h204l-173 -144h-132zM479 760l101 144h204l-173 -144
h-132z" />
    <glyph glyph-name="ohungarumlaut" unicode="&#x151;" horiz-adv-x="610" 
d="M35 243q0 114 77.5 184.5t192.5 70.5t192.5 -70.5t77.5 -184.5t-77.5 -184.5t-192.5 -70.5t-192.5 70.5t-77.5 184.5zM185 243q0 -55 32 -89t88 -34t88 34t32 89t-32 89t-88 34t-88 -34t-32 -89zM90 564l101 144h204l-173 -144h-132zM354 564l101 144h204l-173 -144h-132
z" />
    <glyph glyph-name="OE" unicode="&#x152;" horiz-adv-x="1018" 
d="M665 564v-132h264v-144h-264v-144h300v-144h-531q-74 0 -143 21t-127.5 62.5t-94 111.5t-35.5 159q0 167 110.5 260.5t281.5 93.5h527v-144h-288zM509 144v420h-51q-119 0 -190.5 -54t-71.5 -156t71.5 -156t190.5 -54h51z" />
    <glyph glyph-name="oe" unicode="&#x153;" horiz-adv-x="944" 
d="M778 161l105 -77q-36 -45 -91 -70.5t-114 -25.5q-127 0 -190 69q-66 -69 -182 -69t-193.5 70.5t-77.5 184.5t77.5 184.5t193.5 70.5q110 0 182 -73q70 73 190 73q105 0 166.5 -69t61.5 -186v-47h-348q9 -43 39.5 -68.5t73.5 -25.5q64 0 107 59zM306 366
q-56 0 -88.5 -33.5t-32.5 -89.5t32.5 -89.5t88.5 -33.5t88 34t32 89t-32 89t-88 34zM558 298h198q1 38 -25.5 65t-66.5 27q-47 0 -75 -27t-31 -65z" />
    <glyph glyph-name="Racute" unicode="&#x154;" horiz-adv-x="648" 
d="M72 0v708h274q267 0 267 -215q0 -76 -40 -128.5t-113 -65.5l180 -299h-187l-148 283h-77v-283h-156zM228 576v-161h92q28 0 45.5 2t40 8.5t34 24t11.5 44.5q0 82 -121 82h-102zM190 760l101 144h204l-173 -144h-132z" />
    <glyph glyph-name="racute" unicode="&#x155;" horiz-adv-x="407" 
d="M53 0v486h150v-78h2q49 90 140 90q33 0 50 -5v-137q-35 10 -64 10q-41 0 -67.5 -11t-39.5 -35t-17 -50t-4 -67v-203h-150zM115 564l101 144h204l-173 -144h-132z" />
    <glyph glyph-name="Rcommaaccent" unicode="&#x156;" horiz-adv-x="648" 
d="M72 0v708h274q267 0 267 -215q0 -76 -40 -128.5t-113 -65.5l180 -299h-187l-148 283h-77v-283h-156zM228 576v-161h92q28 0 45.5 2t40 8.5t34 24t11.5 44.5q0 82 -121 82h-102zM189 -260l64 199h144l-90 -199h-118z" />
    <glyph glyph-name="rcommaaccent" unicode="&#x157;" horiz-adv-x="407" 
d="M53 0v486h150v-78h2q49 90 140 90q33 0 50 -5v-137q-35 10 -64 10q-41 0 -67.5 -11t-39.5 -35t-17 -50t-4 -67v-203h-150zM58 -260l64 199h144l-90 -199h-118z" />
    <glyph glyph-name="Rcaron" unicode="&#x158;" horiz-adv-x="648" 
d="M72 0v708h274q267 0 267 -215q0 -76 -40 -128.5t-113 -65.5l180 -299h-187l-148 283h-77v-283h-156zM228 576v-161h92q28 0 45.5 2t40 8.5t34 24t11.5 44.5q0 82 -121 82h-102zM114 931h138l63 -78l62 78h135l-119 -144h-163z" />
    <glyph glyph-name="rcaron" unicode="&#x159;" horiz-adv-x="407" 
d="M53 0v486h150v-78h2q49 90 140 90q33 0 50 -5v-137q-35 10 -64 10q-41 0 -67.5 -11t-39.5 -35t-17 -50t-4 -67v-203h-150zM9 708h138l63 -78l62 78h135l-119 -144h-163z" />
    <glyph glyph-name="Sacute" unicode="&#x15a;" horiz-adv-x="574" 
d="M529 652l-107 -117q-18 23 -50 35t-63 12q-39 0 -72 -18.5t-33 -54.5q0 -26 18 -43.5t46.5 -28t63.5 -20t70 -23.5t63.5 -34.5t46.5 -57.5t18 -87q0 -113 -78 -173t-195 -60q-142 0 -238 89l111 122q24 -31 60.5 -49t75.5 -18q42 0 75 19.5t33 54.5q0 30 -24.5 51
t-61.5 31t-80 26t-80 35t-61.5 58.5t-24.5 94.5q0 108 79.5 169t190.5 61q133 0 217 -74zM195 760l101 144h204l-173 -144h-132z" />
    <glyph glyph-name="sacute" unicode="&#x15b;" horiz-adv-x="463" 
d="M420 434l-92 -91q-33 41 -87 41q-22 0 -38.5 -10t-16.5 -30q0 -16 18.5 -26.5t47 -15t61 -14t61 -23t47 -44t18.5 -73.5q0 -44 -20 -77t-53.5 -50t-71 -25t-79.5 -8q-126 0 -191 66l91 101q44 -53 106 -53q68 0 68 35q0 21 -26 32t-63 18.5t-74.5 19.5t-63.5 44t-26 83
q0 80 60 122t144 42q120 0 180 -64zM141 564l101 144h204l-173 -144h-132z" />
    <glyph glyph-name="Scircumflex" unicode="&#x15c;" horiz-adv-x="574" 
d="M529 652l-107 -117q-18 23 -50 35t-63 12q-39 0 -72 -18.5t-33 -54.5q0 -26 18 -43.5t46.5 -28t63.5 -20t70 -23.5t63.5 -34.5t46.5 -57.5t18 -87q0 -113 -78 -173t-195 -60q-142 0 -238 89l111 122q24 -31 60.5 -49t75.5 -18q42 0 75 19.5t33 54.5q0 30 -24.5 51
t-61.5 31t-80 26t-80 35t-61.5 58.5t-24.5 94.5q0 108 79.5 169t190.5 61q133 0 217 -74zM496 760h-138l-63 78l-62 -78h-135l119 144h163z" />
    <glyph glyph-name="scircumflex" unicode="&#x15d;" horiz-adv-x="463" 
d="M420 434l-92 -91q-33 41 -87 41q-22 0 -38.5 -10t-16.5 -30q0 -16 18.5 -26.5t47 -15t61 -14t61 -23t47 -44t18.5 -73.5q0 -44 -20 -77t-53.5 -50t-71 -25t-79.5 -8q-126 0 -191 66l91 101q44 -53 106 -53q68 0 68 35q0 21 -26 32t-63 18.5t-74.5 19.5t-63.5 44t-26 83
q0 80 60 122t144 42q120 0 180 -64zM438 564h-138l-63 78l-62 -78h-135l119 144h163z" />
    <glyph glyph-name="Scedilla" unicode="&#x15e;" horiz-adv-x="574" 
d="M529 652l-107 -117q-18 23 -49.5 35t-63.5 12q-39 0 -72 -18.5t-33 -54.5q0 -35 33.5 -55t81.5 -33t96 -31.5t81.5 -62t33.5 -112.5q0 -101 -61.5 -158.5t-160.5 -70.5l-31 -46q26 0 45 -2.5t39.5 -10.5t31 -25.5t10.5 -44.5q0 -49 -45 -73t-94 -24q-63 0 -125 30l25 47
q39 -17 77 -17q66 0 66 32q0 16 -16 25t-34 9q-14 0 -36 -8l-32 29l50 76q-131 5 -220 88l111 122q50 -67 136 -67q43 0 75.5 19t32.5 55q0 30 -24.5 51t-61.5 31t-80 26t-80 35t-61.5 58.5t-24.5 94.5q0 108 79 169t191 61q133 0 217 -74z" />
    <glyph glyph-name="scedilla" unicode="&#x15f;" horiz-adv-x="463" 
d="M420 434l-92 -91q-33 41 -87 41q-22 0 -38.5 -10t-16.5 -30q0 -19 26 -29.5t63 -18t74.5 -20t63.5 -45t26 -83.5q0 -70 -47.5 -108.5t-118.5 -47.5l-35 -52q26 0 45 -2.5t39.5 -10.5t31 -25.5t10.5 -44.5q0 -49 -45 -73t-94 -24q-63 0 -125 30l25 47q39 -17 77 -17
q66 0 66 32q0 16 -16 25t-34 9q-14 0 -36 -8l-32 29l54 81q-122 6 -180 66l91 101q42 -53 106 -53q68 0 68 35q0 21 -26 32t-63 18.5t-74.5 19.5t-63.5 44t-26 83q0 81 60 122.5t144 41.5q120 0 180 -64z" />
    <glyph glyph-name="Scaron" unicode="&#x160;" horiz-adv-x="574" 
d="M529 652l-107 -117q-18 23 -50 35t-63 12q-39 0 -72 -18.5t-33 -54.5q0 -26 18 -43.5t46.5 -28t63.5 -20t70 -23.5t63.5 -34.5t46.5 -57.5t18 -87q0 -113 -78 -173t-195 -60q-142 0 -238 89l111 122q24 -31 60.5 -49t75.5 -18q42 0 75 19.5t33 54.5q0 30 -24.5 51
t-61.5 31t-80 26t-80 35t-61.5 58.5t-24.5 94.5q0 108 79.5 169t190.5 61q133 0 217 -74zM84 930h138l63 -78l62 78h135l-119 -144h-163z" />
    <glyph glyph-name="scaron" unicode="&#x161;" horiz-adv-x="463" 
d="M420 434l-92 -91q-33 41 -87 41q-22 0 -38.5 -10t-16.5 -30q0 -16 18.5 -26.5t47 -15t61 -14t61 -23t47 -44t18.5 -73.5q0 -44 -20 -77t-53.5 -50t-71 -25t-79.5 -8q-126 0 -191 66l91 101q44 -53 106 -53q68 0 68 35q0 21 -26 32t-63 18.5t-74.5 19.5t-63.5 44t-26 83
q0 80 60 122t144 42q120 0 180 -64zM29 708h138l63 -78l62 78h135l-119 -144h-163z" />
    <glyph glyph-name="Tcommaaccent" unicode="&#x162;" horiz-adv-x="574" 
d="M209 0v570h-202v138h560v-138h-202v-570h-156zM176 -260l64 199h144l-90 -199h-118z" />
    <glyph glyph-name="tcommaaccent" unicode="&#x163;" horiz-adv-x="407" 
d="M384 486v-120h-132v-162q0 -46 13 -68t58 -22q46 0 61 14v-125q-41 -15 -105 -15q-80 0 -128.5 35.5t-48.5 111.5v231h-96v120h96v144h150v-144h132zM103 -260l64 199h144l-90 -199h-118z" />
    <glyph glyph-name="Tcaron" unicode="&#x164;" horiz-adv-x="574" 
d="M209 0v570h-202v138h560v-138h-202v-570h-156zM88 931h138l63 -78l62 78h135l-119 -144h-163z" />
    <glyph glyph-name="tcaron" unicode="&#x165;" horiz-adv-x="407" 
d="M384 486v-120h-132v-162q0 -46 13 -68t58 -22q46 0 61 14v-125q-41 -15 -105 -15q-80 0 -128.5 35.5t-48.5 111.5v231h-96v120h96v144h150v-144h132zM306 559l44 199h134l-80 -199h-98z" />
    <glyph glyph-name="Tbar" unicode="&#x166;" horiz-adv-x="574" 
d="M490 462v-96h-125v-366h-156v366h-119v96h119v108h-202v138h560v-138h-202v-108h125z" />
    <glyph glyph-name="tbar" unicode="&#x167;" horiz-adv-x="407" 
d="M367 313v-96h-115v-13q0 -47 13 -68.5t58 -21.5q46 0 61 14v-125q-41 -15 -105 -15q-81 0 -129 35.5t-48 111.5v82h-75v96h75v53h-96v120h96v144h150v-144h132v-120h-132v-53h115z" />
    <glyph glyph-name="Utilde" unicode="&#x168;" horiz-adv-x="741" 
d="M669 708v-435q0 -130 -77.5 -210.5t-220.5 -80.5t-221 80.5t-78 210.5v435h156v-429q0 -66 40.5 -109.5t102.5 -43.5q61 0 101.5 44t40.5 109v429h156zM260 766h-79q9 57 42 97.5t85 40.5q36 0 87 -21q41 -15 56 -15q28 0 44 36h78q-24 -138 -130 -138q-34 0 -78 21
t-63 21q-27 0 -42 -42z" />
    <glyph glyph-name="utilde" unicode="&#x169;" horiz-adv-x="574" 
d="M521 486v-486h-144v66h-2q-17 -32 -54 -55t-88 -23q-105 0 -142.5 59.5t-37.5 170.5v268h150v-238q0 -22 0.5 -35.5t4.5 -33.5t12 -31t23.5 -19.5t37.5 -8.5q53 0 71.5 33.5t18.5 90.5v242h150zM173 570h-79q9 57 42 97.5t85 40.5q36 0 87 -21q39 -15 56 -15q28 0 44 36
h78q-24 -138 -130 -138q-30 0 -78 21q-44 21 -63 21q-29 0 -42 -42z" />
    <glyph glyph-name="Umacron" unicode="&#x16a;" horiz-adv-x="741" 
d="M669 708v-435q0 -130 -77.5 -210.5t-220.5 -80.5t-221 80.5t-78 210.5v435h156v-429q0 -66 40.5 -109.5t102.5 -43.5q61 0 101.5 44t40.5 109v429h156zM547 883v-96h-340v96h340z" />
    <glyph glyph-name="umacron" unicode="&#x16b;" horiz-adv-x="574" 
d="M521 486v-486h-144v66h-2q-17 -32 -54 -55t-88 -23q-105 0 -142.5 59.5t-37.5 170.5v268h150v-238q0 -22 0.5 -35.5t4.5 -33.5t12 -31t23.5 -19.5t37.5 -8.5q53 0 71.5 33.5t18.5 90.5v242h150zM456 687v-96h-340v96h340z" />
    <glyph glyph-name="Ubreve" unicode="&#x16c;" horiz-adv-x="741" 
d="M669 708v-435q0 -130 -77.5 -210.5t-220.5 -80.5t-221 80.5t-78 210.5v435h156v-429q0 -66 40.5 -109.5t102.5 -43.5q61 0 101.5 44t40.5 109v429h156zM193 904h80q10 -48 104 -48q46 0 70.5 9t34.5 39h79q-8 -73 -58 -108.5t-126 -35.5q-77 0 -128.5 35t-55.5 109z" />
    <glyph glyph-name="ubreve" unicode="&#x16d;" horiz-adv-x="574" 
d="M521 486v-486h-144v66h-2q-17 -32 -54 -55t-88 -23q-105 0 -142.5 59.5t-37.5 170.5v268h150v-238q0 -22 0.5 -35.5t4.5 -33.5t12 -31t23.5 -19.5t37.5 -8.5q53 0 71.5 33.5t18.5 90.5v242h150zM105 708h80q10 -48 104 -48q46 0 70.5 9t34.5 39h79q-8 -73 -58 -108.5
t-126 -35.5q-77 0 -128.5 35t-55.5 109z" />
    <glyph glyph-name="Uring" unicode="&#x16e;" horiz-adv-x="741" 
d="M669 708v-435q0 -130 -77.5 -210.5t-220.5 -80.5t-221 80.5t-78 210.5v435h156v-429q0 -66 40.5 -109.5t102.5 -43.5q61 0 101.5 44t40.5 109v429h156zM377 731q-45 0 -78 33t-33 78t33 78t78 33t78 -33t33 -78t-33 -78t-78 -33zM326 842q0 -21 15 -36t36 -15t36 15
t15 36t-15 36t-36 15t-36 -15t-15 -36z" />
    <glyph glyph-name="uring" unicode="&#x16f;" horiz-adv-x="574" 
d="M521 486v-486h-144v66h-2q-17 -32 -54 -55t-88 -23q-105 0 -142.5 59.5t-37.5 170.5v268h150v-238q0 -22 0.5 -35.5t4.5 -33.5t12 -31t23.5 -19.5t37.5 -8.5q53 0 71.5 33.5t18.5 90.5v242h150zM284 545q-45 0 -78 33t-33 78t33 78t78 33t78 -33t33 -78t-33 -78t-78 -33z
M233 656q0 -21 15 -36t36 -15t36 15t15 36t-15 36t-36 15t-36 -15t-15 -36z" />
    <glyph glyph-name="Uhungarumlaut" unicode="&#x170;" horiz-adv-x="741" 
d="M669 708v-435q0 -130 -77.5 -210.5t-220.5 -80.5t-221 80.5t-78 210.5v435h156v-429q0 -66 40.5 -109.5t102.5 -43.5q61 0 101.5 44t40.5 109v429h156zM161 760l101 144h204l-173 -144h-132zM425 760l101 144h204l-173 -144h-132z" />
    <glyph glyph-name="uhungarumlaut" unicode="&#x171;" horiz-adv-x="574" 
d="M521 486v-486h-144v66h-2q-17 -32 -54 -55t-88 -23q-105 0 -142.5 59.5t-37.5 170.5v268h150v-238q0 -22 0.5 -35.5t4.5 -33.5t12 -31t23.5 -19.5t37.5 -8.5q53 0 71.5 33.5t18.5 90.5v242h150zM60 564l101 144h204l-173 -144h-132zM324 564l101 144h204l-173 -144h-132z
" />
    <glyph glyph-name="Uogonek" unicode="&#x172;" horiz-adv-x="741" 
d="M463 -145l28 -53q-55 -42 -109 -42q-44 0 -74.5 25t-30.5 68q0 59 71 130q-132 6 -204 86t-72 204v435h156v-429q0 -66 40 -109.5t103 -43.5q62 0 102 43.5t40 109.5v429h156v-435q0 -117 -64 -195.5t-183 -92.5q-55 -61 -55 -107q0 -18 12.5 -32t29.5 -14q25 0 54 23z
" />
    <glyph glyph-name="uogonek" unicode="&#x173;" horiz-adv-x="574" 
d="M473 -145l28 -53q-55 -42 -109 -42q-44 0 -74.5 25t-30.5 68q0 64 90 147v66h-2q-18 -32 -54.5 -55t-87.5 -23q-55 0 -92 16.5t-55.5 50t-25.5 71.5t-7 92v268h150v-238q0 -28 2 -45t8.5 -39t23.5 -33t44 -11q53 0 71.5 33.5t18.5 90.5v242h150v-486h-74
q-70 -70 -70 -122q0 -18 12.5 -32t29.5 -14q25 0 54 23z" />
    <glyph glyph-name="Wcircumflex" unicode="&#x174;" horiz-adv-x="1000" 
d="M208 0l-210 708h170l113 -454h2l148 454h145l147 -466h2l119 466h158l-207 -708h-139l-156 490h-2l-156 -490h-134zM698 760h-138l-63 78l-62 -78h-135l119 144h163z" />
    <glyph glyph-name="wcircumflex" unicode="&#x175;" horiz-adv-x="833" 
d="M173 0l-178 486h160l99 -305h2l83 305h164l90 -305h2l91 305h152l-173 -486h-148l-101 323h-2l-90 -323h-151zM614 564h-138l-63 78l-62 -78h-135l119 144h163z" />
    <glyph glyph-name="Ycircumflex" unicode="&#x176;" horiz-adv-x="648" 
d="M246 0v302l-266 406h194l150 -265l159 265h185l-266 -406v-302h-156zM523 760h-138l-63 78l-62 -78h-135l119 144h163z" />
    <glyph glyph-name="ycircumflex" unicode="&#x177;" horiz-adv-x="556" 
d="M553 486l-220 -565q-15 -39 -23.5 -57.5t-25 -43t-35 -34.5t-49.5 -18t-73 -8q-58 0 -112 18l20 123q35 -15 70 -15q33 0 52.5 11t27 24.5t20.5 46.5l11 28l-213 490h162l125 -321h2l107 321h154zM491 564h-138l-63 78l-62 -78h-135l119 144h163z" />
    <glyph glyph-name="Ydieresis" unicode="&#x178;" horiz-adv-x="648" 
d="M246 0v302l-266 406h194l150 -265l159 265h185l-266 -406v-302h-156zM219 780q-35 0 -59 26t-24 60q0 33 24 57.5t57 24.5q36 0 61.5 -23.5t25.5 -58.5q0 -36 -24.5 -61t-60.5 -25zM427 780q-35 0 -59 26t-24 60q0 33 24 57.5t57 24.5q36 0 61.5 -23.5t25.5 -58.5
q0 -36 -24.5 -61t-60.5 -25z" />
    <glyph glyph-name="Zacute" unicode="&#x179;" horiz-adv-x="630" 
d="M35 0v144l359 426h-346v138h535v-138l-352 -426h364v-144h-560zM220 760l101 144h204l-173 -144h-132z" />
    <glyph glyph-name="zacute" unicode="&#x17a;" horiz-adv-x="500" 
d="M34 0v150l252 216h-246v120h420v-144l-264 -222h270v-120h-432zM149 564l101 144h204l-173 -144h-132z" />
    <glyph glyph-name="Zdotaccent" unicode="&#x17b;" horiz-adv-x="630" 
d="M35 0v144l359 426h-346v138h535v-138l-352 -426h364v-144h-560zM336 754q-35 0 -59 26t-24 60q0 33 24 57.5t57 24.5q36 0 61.5 -23.5t25.5 -58.5q0 -36 -24.5 -61t-60.5 -25z" />
    <glyph glyph-name="zdotaccent" unicode="&#x17c;" horiz-adv-x="500" 
d="M34 0v150l252 216h-246v120h420v-144l-264 -222h270v-120h-432zM265 558q-35 0 -59 26t-24 60q0 33 24 57.5t57 24.5q36 0 61.5 -23.5t25.5 -58.5q0 -36 -24.5 -61t-60.5 -25z" />
    <glyph glyph-name="Zcaron" unicode="&#x17d;" horiz-adv-x="630" 
d="M35 0v144l359 426h-346v138h535v-138l-352 -426h364v-144h-560zM112 931h138l63 -78l62 78h135l-119 -144h-163z" />
    <glyph glyph-name="zcaron" unicode="&#x17e;" horiz-adv-x="500" 
d="M34 0v150l252 216h-246v120h420v-144l-264 -222h270v-120h-432zM47 708h138l63 -78l62 78h135l-119 -144h-163z" />
    <glyph glyph-name="florin" unicode="&#x192;" horiz-adv-x="592" 
d="M496 434v-102h-146l-58 -292q-18 -87 -65 -133t-136 -46q-57 0 -111 24l52 119q19 -11 46 -11q31 0 47.5 21.5t27.5 73.5l50 244h-114v102h134l18 91q22 111 64 153t134 42q66 0 130 -30l-53 -113q-25 11 -52 11q-35 0 -52.5 -19t-26.5 -64l-15 -71h126z" />
    <glyph glyph-name="Scommaaccent" unicode="&#x218;" horiz-adv-x="574" 
d="M529 652l-107 -117q-18 23 -50 35t-63 12q-39 0 -72 -18.5t-33 -54.5q0 -26 18 -43.5t46.5 -28t63.5 -20t70 -23.5t63.5 -34.5t46.5 -57.5t18 -87q0 -113 -78 -173t-195 -60q-142 0 -238 89l111 122q24 -31 60.5 -49t75.5 -18q42 0 75 19.5t33 54.5q0 30 -24.5 51
t-61.5 31t-80 26t-80 35t-61.5 58.5t-24.5 94.5q0 108 79.5 169t190.5 61q133 0 217 -74zM153 -260l64 199h144l-90 -199h-118z" />
    <glyph glyph-name="scommaaccent" unicode="&#x219;" horiz-adv-x="463" 
d="M420 434l-92 -91q-33 41 -87 41q-22 0 -38.5 -10t-16.5 -30q0 -16 18.5 -26.5t47 -15t61 -14t61 -23t47 -44t18.5 -73.5q0 -44 -20 -77t-53.5 -50t-71 -25t-79.5 -8q-126 0 -191 66l91 101q44 -53 106 -53q68 0 68 35q0 21 -26 32t-63 18.5t-74.5 19.5t-63.5 44t-26 83
q0 80 60 122t144 42q120 0 180 -64zM108 -260l64 199h144l-90 -199h-118z" />
    <glyph glyph-name="uni021A" unicode="&#x21a;" horiz-adv-x="574" 
d="M209 0v570h-202v138h560v-138h-202v-570h-156zM176 -260l64 199h144l-90 -199h-118z" />
    <glyph glyph-name="uni021B" unicode="&#x21b;" horiz-adv-x="407" 
d="M384 486v-120h-132v-162q0 -46 13 -68t58 -22q46 0 61 14v-125q-41 -15 -105 -15q-80 0 -128.5 35.5t-48.5 111.5v231h-96v120h96v144h150v-144h132zM103 -260l64 199h144l-90 -199h-118z" />
    <glyph glyph-name="dotlessj" unicode="&#x237;" 
d="M205 486v-522q0 -99 -41.5 -151.5t-138.5 -52.5q-44 0 -70 8l8 133q18 -9 39 -9q18 0 30 9t16.5 27t5.5 30.5t1 31.5v496h150z" />
    <glyph glyph-name="circumflex" unicode="&#x2c6;" 
d="M329 564h-138l-63 78l-62 -78h-135l119 144h163z" />
    <glyph glyph-name="caron" unicode="&#x2c7;" 
d="M-73 708h138l63 -78l62 78h135l-119 -144h-163z" />
    <glyph glyph-name="uni02C9" unicode="&#x2c9;" 
d="M300 687v-96h-340v96h340z" />
    <glyph glyph-name="breve" unicode="&#x2d8;" 
d="M-54 708h80q10 -48 104 -48q46 0 70.5 9t34.5 39h79q-8 -73 -58 -108.5t-126 -35.5q-77 0 -128.5 35t-55.5 109z" />
    <glyph glyph-name="dotaccent" unicode="&#x2d9;" 
d="M129 558q-35 0 -59 26t-24 60q0 33 24 57.5t57 24.5q36 0 61.5 -23.5t25.5 -58.5q0 -36 -24.5 -61t-60.5 -25z" />
    <glyph glyph-name="ring" unicode="&#x2da;" 
d="M130 545q-45 0 -78 33t-33 78t33 78t78 33t78 -33t33 -78t-33 -78t-78 -33zM79 656q0 -21 15 -36t36 -15t36 15t15 36t-15 36t-36 15t-36 -15t-15 -36z" />
    <glyph glyph-name="ogonek" unicode="&#x2db;" 
d="M177 -145l28 -53q-55 -42 -109 -42q-44 0 -74.5 25t-30.5 68q0 39 32.5 83.5t72.5 75.5h68q-31 -28 -57 -65.5t-26 -68.5q0 -18 12.5 -32t29.5 -14q25 0 54 23z" />
    <glyph glyph-name="tilde" unicode="&#x2dc;" 
d="M13 570h-79q9 57 42 97.5t85 40.5q36 0 87 -21q39 -15 56 -15q28 0 44 36h78q-24 -138 -130 -138q-30 0 -78 21q-44 21 -63 21q-29 0 -42 -42z" />
    <glyph glyph-name="hungarumlaut" unicode="&#x2dd;" 
d="M-102 564l101 144h204l-173 -144h-132zM162 564l101 144h204l-173 -144h-132z" />
    <glyph glyph-name="uni0394" unicode="&#x394;" horiz-adv-x="693" 
d="M27 0v78l240 643h165l233 -642v-79h-638zM170 109h345l-112 293q-6 20 -29 87t-29 91h-3q-4 -19 -25 -80t-28 -83z" />
    <glyph glyph-name="uni03A9" unicode="&#x3a9;" horiz-adv-x="751" 
d="M182 109v3q-55 48 -91.5 119.5t-36.5 160.5q0 135 91 229.5t233 94.5q145 0 231.5 -97.5t86.5 -220.5q0 -90 -37.5 -164.5t-93.5 -121.5v-3h145v-109h-283v81q129 82 129 288q0 98 -48 167t-131 69q-82 0 -132.5 -68t-50.5 -173q0 -103 36.5 -177t92.5 -106v-81h-284v109
h143z" />
    <glyph glyph-name="uni03BC" unicode="&#x3bc;" horiz-adv-x="574" 
d="M521 486v-486h-144v66h-2q-18 -32 -54.5 -55t-87.5 -23q-17 0 -30 3v-219h-150v714h150v-238q0 -28 2 -45t8.5 -39t23.5 -33t44 -11q53 0 71.5 33.5t18.5 90.5v242h150z" />
    <glyph glyph-name="pi" unicode="&#x3c0;" horiz-adv-x="637" 
d="M612 416h-74v-262q0 -98 14 -154h-134q-18 29 -18 147v269h-142q-4 -93 -23 -219.5t-43 -196.5h-134q25 82 43.5 205.5t20.5 210.5q-70 0 -103 -10l-15 89q45 35 174 35h444z" />
    <glyph glyph-name="endash" unicode="&#x2013;" horiz-adv-x="500" 
d="M0 189v120h500v-120h-500z" />
    <glyph glyph-name="emdash" unicode="&#x2014;" horiz-adv-x="1000" 
d="M0 189v120h1000v-120h-1000z" />
    <glyph glyph-name="quoteleft" unicode="&#x2018;" horiz-adv-x="296" 
d="M39 426l90 282h128l-74 -282h-144z" />
    <glyph glyph-name="quoteright" unicode="&#x2019;" horiz-adv-x="296" 
d="M257 708l-90 -282h-128l74 282h144z" />
    <glyph glyph-name="quotesinglbase" unicode="&#x201a;" horiz-adv-x="296" 
d="M257 156l-90 -282h-128l74 282h144z" />
    <glyph glyph-name="quotedblleft" unicode="&#x201c;" horiz-adv-x="520" 
d="M44 426l90 282h128l-74 -282h-144zM258 426l90 282h128l-74 -282h-144z" />
    <glyph glyph-name="quotedblright" unicode="&#x201d;" horiz-adv-x="520" 
d="M476 708l-90 -282h-128l74 282h144zM262 708l-90 -282h-128l74 282h144z" />
    <glyph glyph-name="quotedblbase" unicode="&#x201e;" horiz-adv-x="520" 
d="M476 156l-90 -282h-128l74 282h144zM262 156l-90 -282h-128l74 282h144z" />
    <glyph glyph-name="dagger" unicode="&#x2020;" horiz-adv-x="592" 
d="M224 -133v505h-190v126h190v210h138v-210h196v-126h-196v-505h-138z" />
    <glyph glyph-name="daggerdbl" unicode="&#x2021;" horiz-adv-x="592" 
d="M227 -133v180h-193v120h193v241h-193v120h193v180h138v-180h193v-120h-193v-241h193v-120h-193v-180h-138z" />
    <glyph glyph-name="bullet" unicode="&#x2022;" horiz-adv-x="500" 
d="M73 354q0 74 51.5 125.5t125.5 51.5t125.5 -51.5t51.5 -125.5t-51.5 -125.5t-125.5 -51.5t-125.5 51.5t-51.5 125.5z" />
    <glyph glyph-name="ellipsis" unicode="&#x2026;" horiz-adv-x="1000" 
d="M75 86q0 38 27 65t65 27t65 -27t27 -65t-27 -65t-65 -27t-65 27t-27 65zM408 86q0 38 27 65t65 27t65 -27t27 -65t-27 -65t-65 -27t-65 27t-27 65zM741 86q0 38 27 65t65 27t65 -27t27 -65t-27 -65t-65 -27t-65 27t-27 65z" />
    <glyph glyph-name="perthousand" unicode="&#x2030;" horiz-adv-x="1167" 
d="M395 165q0 73 51.5 124.5t124.5 51.5t124.5 -51.5t51.5 -124.5t-51.5 -125t-124.5 -52t-124.5 52t-51.5 125zM491 165q0 -33 23.5 -57t56.5 -24t56.5 24t23.5 57t-23.5 56.5t-56.5 23.5t-56.5 -23.5t-23.5 -56.5zM782 165q0 73 51.5 124.5t124.5 51.5t125 -51.5
t52 -124.5t-52 -125t-125 -52t-124.5 52t-51.5 125zM878 165q0 -33 23.5 -57t56.5 -24t57 24t24 57t-24 56.5t-57 23.5t-56.5 -23.5t-23.5 -56.5zM32 544q0 73 51.5 124.5t124.5 51.5t125 -51.5t52 -124.5t-52 -125t-125 -52t-124.5 52t-51.5 125zM128 544q0 -33 23.5 -57
t56.5 -24t57 24t24 57t-24 56.5t-57 23.5t-56.5 -23.5t-23.5 -56.5zM147 11l405 729l84 -47l-413 -725z" />
    <glyph glyph-name="guilsinglleft" unicode="&#x2039;" horiz-adv-x="296" 
d="M268 422l-116 -173l116 -173l-91 -61l-159 234l159 234z" />
    <glyph glyph-name="guilsinglright" unicode="&#x203a;" horiz-adv-x="296" 
d="M28 76l116 173l-116 173l91 61l159 -234l-159 -234z" />
    <glyph glyph-name="fraction" unicode="&#x2044;" horiz-adv-x="167" 
d="M-161 11l405 729l84 -47l-413 -725z" />
    <glyph glyph-name="Euro" unicode="&#x20ac;" horiz-adv-x="592" 
d="M496 176l82 -101q-33 -39 -91.5 -63t-124.5 -24q-224 0 -271 234h-81l28 90h42q-1 7 -1 18v19q0 17 2 49h-68l31 92h52q60 230 307 230q36 0 86 -9t69 -20l-46 -130q-38 25 -109 25q-108 0 -149 -96h235l-30 -92h-226q-2 -30 -2 -45v-21q0 -13 1 -20h204l-29 -90h-160
q32 -104 129 -104q74 0 120 58z" />
    <glyph glyph-name="afii61289" unicode="&#x2113;" horiz-adv-x="546" 
d="M470 194l56 -58q-76 -145 -223 -145q-87 0 -133 45t-57 118q0 9 -1 11l-53 -40l-35 71q3 3 37 29.5t50 40.5v248q0 131 52.5 196.5t137.5 65.5q74 0 112.5 -51t38.5 -130q0 -86 -53 -170.5t-156 -180.5l1 -39q2 -50 27 -77t64 -27t75 27t60 66zM243 522v-155
q120 133 120 231q0 83 -56 83q-26 0 -45 -37t-19 -122z" />
    <glyph glyph-name="trademark" unicode="&#x2122;" horiz-adv-x="1000" 
d="M159 296v316h-119v96h346v-96h-119v-316h-108zM474 296v412h145l98 -268l98 268h145v-412h-108v268h-2l-98 -268h-70l-98 268h-2v-268h-108z" />
    <glyph glyph-name="Omega" unicode="&#x2126;" horiz-adv-x="751" 
d="M182 109v3q-55 48 -91.5 119.5t-36.5 160.5q0 135 91 229.5t233 94.5q145 0 231.5 -97.5t86.5 -220.5q0 -90 -37.5 -164.5t-93.5 -121.5v-3h145v-109h-283v81q129 82 129 288q0 98 -48 167t-131 69q-82 0 -132.5 -68t-50.5 -173q0 -103 36.5 -177t92.5 -106v-81h-284v109
h143z" />
    <glyph glyph-name="estimated" unicode="&#x212e;" horiz-adv-x="779" 
d="M735 352h-540v-242q79 -79 194 -79q84 0 145 38t112 122l47 -28q-60 -97 -130 -138.5t-174 -41.5q-154 0 -249.5 105.5t-95.5 263.5t95 263t250 105q153 0 249.5 -103t96.5 -265zM195 400h389v193q-84 81 -197 81t-192 -81v-193z" />
    <glyph glyph-name="partialdiff" unicode="&#x2202;" horiz-adv-x="606" 
d="M107 638l-39 99q80 60 196 60q125 0 209 -102.5t84 -284.5q0 -188 -80 -303t-218 -115q-71 0 -123.5 39t-75 92t-22.5 110q0 118 65 191t162 73q57 0 97.5 -27t58.5 -56h1q1 8 1 33q0 98 -49 168.5t-128 70.5q-74 0 -139 -48zM272 104h1q53 0 90 61.5t46 138.5
q-7 28 -39.5 57t-75.5 29q-52 0 -86 -47.5t-34 -113.5q0 -53 27 -89t71 -36z" />
    <glyph glyph-name="Delta" unicode="&#x2206;" horiz-adv-x="693" 
d="M27 0v78l240 643h165l233 -642v-79h-638zM170 109h345l-112 293q-6 20 -29 87t-29 91h-3q-4 -19 -25 -80t-28 -83z" />
    <glyph glyph-name="product" unicode="&#x220f;" horiz-adv-x="759" 
d="M734 583h-108v-680h-135v680h-224v-680h-135v680h-108v122h710v-122z" />
    <glyph glyph-name="summation" unicode="&#x2211;" horiz-adv-x="588" 
d="M569 -97h-546v85l252 316l-242 307v94h519v-115h-334v-4l211 -261l-233 -295v-3h373v-124z" />
    <glyph glyph-name="minus" unicode="&#x2212;" horiz-adv-x="666" 
d="M59 240v126h548v-126h-548z" />
    <glyph glyph-name="uni2215" unicode="&#x2215;" horiz-adv-x="167" 
d="M-161 11l405 729l84 -47l-413 -725z" />
    <glyph glyph-name="uni2219" unicode="&#x2219;" horiz-adv-x="296" 
d="M56 283q0 39 26.5 65.5t65.5 26.5t65.5 -26.5t26.5 -65.5t-26.5 -65.5t-65.5 -26.5t-65.5 26.5t-26.5 65.5z" />
    <glyph glyph-name="radical" unicode="&#x221a;" horiz-adv-x="624" 
d="M635 846l-237 -988h-109l-157 440l-77 -31l-23 74l181 74l109 -322q15 -66 21 -87l1 -1q12 69 17 94l178 747h96z" />
    <glyph glyph-name="infinity" unicode="&#x221e;" horiz-adv-x="803" 
d="M753 292v-1q0 -81 -49.5 -130.5t-116.5 -49.5q-47 0 -91.5 26t-93.5 91q-45 -57 -89 -87t-101 -30q-66 0 -114.5 49.5t-48.5 125.5q0 78 48.5 127.5t123.5 49.5q55 0 98.5 -29t86.5 -85q3 3 8 9q29 32 47 49.5t55 36.5t77 19q69 0 114.5 -47t45.5 -124zM221 185h2
q25 0 50.5 15t40 29.5t40.5 43.5q5 6 8 9l-9 12q-25 34 -39.5 50t-40.5 31.5t-55 15.5q-44 0 -69 -29.5t-25 -76.5q0 -42 27.5 -71t69.5 -29zM585 391h-1q-15 0 -30.5 -5.5t-26 -12t-25 -20t-21 -20.5t-20.5 -23.5t-17 -20.5q47 -60 77 -82t68 -22q40 0 64.5 31.5t24.5 68.5
q0 48 -25.5 77t-67.5 29z" />
    <glyph glyph-name="integral" unicode="&#x222b;" horiz-adv-x="410" 
d="M390 861l-14 -92q-20 9 -38 9q-34 0 -52 -26q-28 -34 -28 -168q0 -81 8 -235t8 -248q0 -135 -38 -201q-38 -76 -135 -76q-48 0 -82 17l17 95q30 -11 45 -11q31 0 46 20q29 38 29 156q0 94 -8 252.5t-8 243.5q0 89 14.5 141.5t48.5 87.5q44 47 123 47q35 0 64 -12z" />
    <glyph glyph-name="approxequal" unicode="&#x2248;" horiz-adv-x="666" 
d="M513 303l78 -75q-67 -131 -158 -131q-37 0 -97.5 35.5t-98.5 35.5q-32 0 -83 -85l-79 78q27 56 73 92t95 36q43 0 99 -34.5t91 -34.5q31 0 80 83zM513 502l78 -76q-61 -125 -157 -125q-34 0 -99 35t-98 35q-26 0 -83 -84l-79 75q27 55 72 90t96 35q35 0 99 -34.5
t92 -34.5q33 0 79 84z" />
    <glyph glyph-name="notequal" unicode="&#x2260;" horiz-adv-x="666" 
d="M59 336v126h279l50 116l106 -43l-32 -73h145v-126h-200l-29 -66h229v-126h-284l-52 -119l-102 38l34 81h-144v126h198l28 66h-226z" />
    <glyph glyph-name="lessequal" unicode="&#x2264;" horiz-adv-x="666" 
d="M551 124l-482 189v113l482 193v-140l-326 -108l326 -109v-138zM555 -15h-490v123h490v-123z" />
    <glyph glyph-name="greaterequal" unicode="&#x2265;" horiz-adv-x="666" 
d="M551 313l-482 -189v138l326 109l-326 108v140l482 -193v-113zM555 -15h-490v123h490v-123z" />
    <glyph glyph-name="lozenge" unicode="&#x25ca;" horiz-adv-x="623" 
d="M572 352l-209 -403h-108l-204 403l208 403h109zM452 349l-119 240q-14 34 -20 58h-3q-9 -33 -20 -58l-119 -234l120 -244q12 -28 18 -55h4q9 32 18 53z" />
    <glyph glyph-name="grave.cap" unicode="&#xe300;" 
d="M131 904l101 -144h-132l-173 144h204z" />
    <glyph glyph-name="acute.cap" unicode="&#xe301;" 
d="M30 760l101 144h204l-173 -144h-132z" />
    <glyph glyph-name="circumflex.cap" unicode="&#xe302;" 
d="M329 760h-138l-63 78l-62 -78h-135l119 144h163z" />
    <glyph glyph-name="caron.cap" unicode="&#xe303;" 
d="M-73 931h138l63 -78l62 78h135l-119 -144h-163z" />
    <glyph glyph-name="tilde.cap" unicode="&#xe304;" 
d="M13 766h-79q9 57 42 97.5t85 40.5q36 0 87 -21q41 -15 56 -15q28 0 44 36h78q-24 -138 -130 -138q-34 0 -78 21t-63 21q-27 0 -42 -42z" />
    <glyph glyph-name="dieresis.cap" unicode="&#xe305;" 
d="M25 754q-35 0 -59 26t-24 60q0 33 24 57.5t57 24.5q36 0 61.5 -23.5t25.5 -58.5q0 -36 -24.5 -61t-60.5 -25zM233 754q-35 0 -59 26t-24 60q0 33 24 57.5t57 24.5q36 0 61.5 -23.5t25.5 -58.5q0 -36 -24.5 -61t-60.5 -25z" />
    <glyph glyph-name="macron.cap" unicode="&#xe306;" 
d="M300 883v-96h-340v96h340z" />
    <glyph glyph-name="breve.cap" unicode="&#xe307;" 
d="M-54 904h80q10 -48 104 -48q46 0 70.5 9t34.5 39h79q-8 -73 -58 -108.5t-126 -35.5q-77 0 -128.5 35t-55.5 109z" />
    <glyph glyph-name="ring.cap" unicode="&#xe308;" 
d="M130 731q-45 0 -78 33t-33 78t33 78t78 33t78 -33t33 -78t-33 -78t-78 -33zM79 842q0 -21 15 -36t36 -15t36 15t15 36t-15 36t-36 15t-36 -15t-15 -36z" />
    <glyph glyph-name="hungarumlaut.cap" unicode="&#xe309;" 
d="M-102 760l101 144h204l-173 -144h-132zM162 760l101 144h204l-173 -144h-132z" />
    <glyph glyph-name="dotaccent.cap" unicode="&#xe30a;" 
d="M129 754q-35 0 -59 26t-24 60q0 33 24 57.5t57 24.5q36 0 61.5 -23.5t25.5 -58.5q0 -36 -24.5 -61t-60.5 -25z" />
    <glyph glyph-name="caron.alt" unicode="&#xe30b;" 
d="M37 509l44 199h134l-80 -199h-98z" />
    <glyph glyph-name="commaaccent" unicode="&#xe30c;" 
d="M27 -260l64 199h144l-90 -199h-118z" />
    <glyph glyph-name="commaaccent.alt" unicode="&#xe30d;" 
d="M225 783l-64 -199h-144l90 199h118z" />
    <glyph glyph-name="uniF8FF" unicode="&#xf8ff;" horiz-adv-x="512" 
d="M278 117h-56v67h56v-67zM271 234h-46l-2 17q0 56 13 81q15 28 46 59q30 28 40 45.5t10 37.5q0 36 -22.5 60.5t-53.5 24.5q-71 0 -82 -95l-50 8q6 69 42 103t93 34q55 0 89.5 -36t34.5 -95q0 -34 -13 -60t-50 -60q-37 -33 -43 -52q-6 -20 -6 -72zM50 50h412v617h-412v-617
zM0 718h512v-718h-512v718z" />
    </font>
</defs>
</svg>
